<svg xmlns="http://www.w3.org/2000/svg" xmlns:xlink="http://www.w3.org/1999/xlink" width="1366" height="768" viewBox="0 0 1366 768">
  <defs>
    <style>
      .cls-1 {
        clip-path: url(#clip-About_Me);
      }

      .cls-2 {
        opacity: 0.689;
      }

      .cls-2, .cls-21 {
        mix-blend-mode: multiply;
        isolation: isolate;
      }

      .cls-3 {
        fill: #c2c6e4;
      }

      .cls-4 {
        fill: #c2c7e5;
      }

      .cls-5 {
        fill: #c1c7e5;
      }

      .cls-6 {
        fill: #c1c8e6;
      }

      .cls-7 {
        fill: #c1c9e6;
      }

      .cls-8 {
        fill: #c0c9e7;
      }

      .cls-9 {
        fill: #c0cae7;
      }

      .cls-10 {
        fill: #c0cbe8;
      }

      .cls-11 {
        fill: #bfcce8;
      }

      .cls-12 {
        fill: #bfcce9;
      }

      .cls-13 {
        fill: #bfcde9;
      }

      .cls-14 {
        fill: #becdea;
      }

      .cls-15 {
        fill: #beceea;
      }

      .cls-16 {
        fill: #becfeb;
      }

      .cls-17 {
        fill: #bdd0eb;
      }

      .cls-18 {
        fill: #bdd0ec;
      }

      .cls-19 {
        fill: #bdd1ec;
      }

      .cls-20, .cls-21 {
        fill: #bcd2ed;
      }

      .cls-21 {
        opacity: 0.578;
      }

      .cls-22 {
        fill: #fff;
      }
    </style>
    <clipPath id="clip-About_Me">
      <rect width="1366" height="768"/>
    </clipPath>
  </defs>
  <g id="About_Me" data-name="About Me" class="cls-1">
    <rect class="cls-22" width="1366" height="768"/>
    <g id="Grupo_74" data-name="Grupo 74" transform="translate(-73 -716)">
      <g id="Grupo_44" data-name="Grupo 44" class="cls-2" transform="translate(-1150.254 624.293)">
        <path id="Trazado_88" data-name="Trazado 88" class="cls-3" d="M1523.584,1217.79l-.511-.86a62.969,62.969,0,0,0,22.5-22.985,76.235,76.235,0,0,0,6.533-14.859,90.554,90.554,0,0,0,3.561-16.273,104.474,104.474,0,0,0,.716-17.055,114.2,114.2,0,0,0-6.579-33.915,106.3,106.3,0,0,0-7.027-15.589,160.578,160.578,0,0,0-15.205-22.55,226.179,226.179,0,0,0-18.328-20.161c-13.031-12.823-27.649-24.742-41.786-36.269-6.669-5.437-13.565-11.06-20.182-16.687-20.439-17.383-35.87-33.839-47.174-50.311a157.4,157.4,0,0,1-8.858-14.477,130.081,130.081,0,0,1-6.989-15.229,111.536,111.536,0,0,1-4.769-15.977,101.54,101.54,0,0,1-2.2-16.716,108.7,108.7,0,0,1,1.132-21.1,153.2,153.2,0,0,1,4.61-20.648c3.969-13.635,9.565-27.282,14.977-40.48,5.633-13.738,11.459-27.944,15.42-42.086a143.375,143.375,0,0,0,4.4-21.348,102.259,102.259,0,0,0,.447-21.756,95.664,95.664,0,0,0-8.529-31.588,118.382,118.382,0,0,0-17.746-27.307c-13.353-15.593-31.323-29.429-51.967-40.013-12.43-6.373-26.261-10.536-39.637-14.562-9.874-2.972-20.084-6.045-29.64-9.982-5.933-2.444-12.061-4.617-18.213-6.458-5.842-1.748-11.892-3.252-17.982-4.47a228.273,228.273,0,0,0-35.176-4.135q-6.474-.282-12.848-.273c-18.466,0-36.3,1.59-53.662,3.138-22.887,2.04-44.505,3.968-64.51,1.879a110.6,110.6,0,0,1-28.8-6.648,89.982,89.982,0,0,1-13.412-6.512,91.349,91.349,0,0,1-12.7-9.124A208.628,208.628,0,0,1,991.1,542.282a168.36,168.36,0,0,1-16.261-22.212,136.2,136.2,0,0,1-17.263-42.882,120.062,120.062,0,0,1-1.92-37.81,104.562,104.562,0,0,1,7.4-29.144c2.363-5.551,5.152-11.282,8.29-17.034a217.906,217.906,0,0,1,12.122-19.658A187,187,0,0,1,1019.787,334a148.718,148.718,0,0,1,24.487-16.046,133.45,133.45,0,0,1,28.895-11,135.419,135.419,0,0,1,32.987-4.018h.443a161.872,161.872,0,0,1,38.084,4.879c12.7,3.128,23.177,5.556,32.966,7.639,12,2.554,22.89,4.569,33.292,6.162,24.577,3.764,46.544,5.145,67.153,4.224a145.953,145.953,0,0,0,25-3.335,156.246,156.246,0,0,0,24.21-7.5,160.439,160.439,0,0,0,22.719-11.27,156.8,156.8,0,0,0,20.526-14.652,146.292,146.292,0,0,0,17.63-17.641,132.246,132.246,0,0,0,14.036-20.237,119.04,119.04,0,0,0,9.744-22.44,110.851,110.851,0,0,0,4.758-24.256,160.2,160.2,0,0,0-.442-27.737c-.862-9.311-2.279-18.8-3.65-27.972-2.047-13.7-4.164-27.867-4.415-41.493a118.422,118.422,0,0,1,1.225-20.233,86.066,86.066,0,0,1,5.346-19.672,79.628,79.628,0,0,1,11.781-19.88,92.765,92.765,0,0,1,16.73-16.042,110.584,110.584,0,0,1,42.529-19.206,136.82,136.82,0,0,1,23.053-2.929,166.605,166.605,0,0,1,23.253.683,211.942,211.942,0,0,1,23.122,3.609c7.258,1.532,14.882,3.5,22.661,5.849l-.289.957c-7.752-2.341-15.349-4.3-22.579-5.828a210.938,210.938,0,0,0-23.012-3.592,165.6,165.6,0,0,0-23.113-.68,135.813,135.813,0,0,0-22.884,2.907,109.575,109.575,0,0,0-42.142,19.03,91.763,91.763,0,0,0-16.55,15.869,78.618,78.618,0,0,0-11.634,19.63,85.073,85.073,0,0,0-5.284,19.447,117.427,117.427,0,0,0-1.214,20.063c.25,13.561,2.362,27.695,4.4,41.364,1.373,9.188,2.793,18.689,3.657,28.028a161.174,161.174,0,0,1,.443,27.91,111.846,111.846,0,0,1-4.8,24.475,120.031,120.031,0,0,1-9.826,22.629,133.224,133.224,0,0,1-14.142,20.39,147.3,147.3,0,0,1-17.751,17.762,157.811,157.811,0,0,1-20.657,14.746,161.416,161.416,0,0,1-22.861,11.341,157.226,157.226,0,0,1-24.365,7.546,146.978,146.978,0,0,1-25.169,3.358q-6.184.276-12.543.277a361.341,361.341,0,0,1-54.807-4.511c-10.422-1.6-21.33-3.615-33.349-6.173-9.8-2.086-20.285-4.515-33-7.646a160.875,160.875,0,0,0-37.849-4.85h-.439a134.413,134.413,0,0,0-32.744,3.988,132.443,132.443,0,0,0-28.678,10.913,147.708,147.708,0,0,0-24.322,15.938,186.006,186.006,0,0,0-36.123,39.329,216.919,216.919,0,0,0-12.066,19.568c-3.122,5.724-5.9,11.425-8.248,16.946a103.558,103.558,0,0,0-7.326,28.861,119.066,119.066,0,0,0,1.905,37.5,135.206,135.206,0,0,0,17.139,42.567,167.36,167.36,0,0,0,16.164,22.08,207.645,207.645,0,0,0,22.236,22.019,90.374,90.374,0,0,0,12.559,9.023,88.965,88.965,0,0,0,13.262,6.439,109.62,109.62,0,0,0,28.541,6.586,179.913,179.913,0,0,0,18.661.9c14.519,0,29.78-1.361,45.656-2.776,21.385-1.906,43.5-3.878,66.642-2.868a229.269,229.269,0,0,1,35.329,4.154c6.121,1.225,12.2,2.736,18.073,4.493,6.184,1.85,12.344,4.034,18.308,6.491,9.51,3.918,19.7,6.984,29.547,9.949,13.419,4.039,27.294,8.215,39.8,14.63,20.759,10.643,38.834,24.562,52.27,40.253a119.382,119.382,0,0,1,17.895,27.539,96.663,96.663,0,0,1,8.617,31.918,103.26,103.26,0,0,1-.45,21.966,144.374,144.374,0,0,1-4.426,21.5c-3.977,14.2-9.813,28.43-15.457,42.2-5.4,13.174-10.988,26.8-14.942,40.38a152.215,152.215,0,0,0-4.58,20.514,107.7,107.7,0,0,0-1.122,20.908,100.525,100.525,0,0,0,2.178,16.551,110.538,110.538,0,0,0,4.727,15.833,129.063,129.063,0,0,0,6.935,15.112,156.377,156.377,0,0,0,8.8,14.384c11.254,16.4,26.627,32.79,47,50.115,6.608,5.62,13.5,11.24,20.166,16.674,14.155,11.541,28.792,23.475,41.855,36.331a227.183,227.183,0,0,1,18.408,20.25,161.584,161.584,0,0,1,15.3,22.689,107.307,107.307,0,0,1,7.093,15.736,115.2,115.2,0,0,1,6.637,34.214,105.519,105.519,0,0,1-.723,17.218,91.579,91.579,0,0,1-3.6,16.453,77.238,77.238,0,0,1-6.619,15.054A63.957,63.957,0,0,1,1523.584,1217.79Z" transform="translate(-12.511 -52.485)"/>
        <path id="Trazado_89" data-name="Trazado 89" class="cls-3" d="M1520.179,1215.956l-.545-.839a69.968,69.968,0,0,0,22.758-24.423,84.45,84.45,0,0,0,6.8-15.472,98.085,98.085,0,0,0,3.867-16.84,115.3,115.3,0,0,0-12.094-68.781,158.274,158.274,0,0,0-15.933-24.1,224.686,224.686,0,0,0-19.54-21.42c-13.955-13.579-29.654-26.073-44.837-38.155-5.224-4.157-10.625-8.456-15.842-12.71-9.7-7.909-18.052-15.356-25.54-22.767a221.192,221.192,0,0,1-22.385-25.577A158.63,158.63,0,0,1,1387.708,931a129.727,129.727,0,0,1-7.4-14.611,110.145,110.145,0,0,1-5.276-15.361,99.227,99.227,0,0,1-2.82-16.119,106.063,106.063,0,0,1,.244-20.678,148.646,148.646,0,0,1,3.677-20.35c3.339-13.474,8.292-27.062,13.083-40.2,4.893-13.422,9.953-27.3,13.349-41.179a150.776,150.776,0,0,0,3.7-20.972,109.352,109.352,0,0,0,.132-21.4,107.919,107.919,0,0,0-8.344-32.191,127.749,127.749,0,0,0-16.83-28.113,161.179,161.179,0,0,0-22.944-23.663,192.072,192.072,0,0,0-26.672-18.834,162.38,162.38,0,0,0-21.069-10.188c-7.308-2.977-14.963-5.687-22.367-8.307-8.74-3.093-17.777-6.292-26.388-9.977-5.743-2.458-11.678-4.654-17.64-6.528-5.662-1.779-11.528-3.323-17.437-4.589a221.827,221.827,0,0,0-34.166-4.487c-22.439-1.282-43.968.349-64.788,1.926-22.265,1.686-43.295,3.28-62.8,1.036a110.391,110.391,0,0,1-28.106-6.73,89.942,89.942,0,0,1-13.1-6.416,91,91,0,0,1-12.416-8.918,206.884,206.884,0,0,1-21.808-21.49,167.939,167.939,0,0,1-16-21.606,136.347,136.347,0,0,1-17.372-41.839,119.894,119.894,0,0,1-2.521-37.131,104.934,104.934,0,0,1,6.719-28.991,176.006,176.006,0,0,1,7.82-16.846,203.177,203.177,0,0,1,11.576-19.273A193.99,193.99,0,0,1,995.2,347.066a169.949,169.949,0,0,1,19.484-18.748,137.446,137.446,0,0,1,51.559-26.8,133.766,133.766,0,0,1,32.321-4.439,158.14,158.14,0,0,1,36.829,3.938c26.137,5.829,46.284,9.544,65.324,12.048a392.2,392.2,0,0,0,51.234,3.6q7.77,0,15.279-.372a145.457,145.457,0,0,0,24.346-3.266,154.972,154.972,0,0,0,23.575-7.229,158.66,158.66,0,0,0,22.145-10.829,154.874,154.874,0,0,0,20.055-14.065,144.529,144.529,0,0,0,17.307-16.935,130.789,130.789,0,0,0,13.9-19.438,112.423,112.423,0,0,0,14.97-44.927,158.917,158.917,0,0,0,.255-27.3c-.61-9.187-1.761-18.577-2.874-27.658-1.64-13.389-3.337-27.234-3.315-40.6a123.506,123.506,0,0,1,1.514-19.862,90.113,90.113,0,0,1,5.328-19.35,84.987,84.987,0,0,1,11.546-20.148,97.174,97.174,0,0,1,16.228-16.49,114.337,114.337,0,0,1,41.2-20.825,140.6,140.6,0,0,1,22.7-4.186,167.286,167.286,0,0,1,23.09-.7A206.805,206.805,0,0,1,1542.353,4.7c7.369,1.113,15.071,2.649,22.892,4.564l-.238.971c-7.792-1.908-15.464-3.438-22.8-4.547a205.866,205.866,0,0,0-23.042-2.207,166.314,166.314,0,0,0-22.951.695,139.63,139.63,0,0,0-22.535,4.156,113.331,113.331,0,0,0-40.836,20.64,96.181,96.181,0,0,0-16.062,16.32,83.989,83.989,0,0,0-11.41,19.911,89.126,89.126,0,0,0-5.269,19.138,122.526,122.526,0,0,0-1.5,19.7c-.022,13.3,1.671,27.115,3.307,40.473,1.114,9.095,2.266,18.5,2.879,27.714a159.915,159.915,0,0,1-.258,27.469,110.271,110.271,0,0,1-5.176,23.566,118.721,118.721,0,0,1-9.924,21.76,131.8,131.8,0,0,1-14.007,19.587,145.525,145.525,0,0,1-17.427,17.052,155.855,155.855,0,0,1-20.185,14.156,159.656,159.656,0,0,1-22.285,10.9A155.99,155.99,0,0,1,1291.794,314a146.472,146.472,0,0,1-24.513,3.288c-20.584,1.018-42.4-.04-66.692-3.234-19.071-2.508-39.245-6.228-65.412-12.064a157.171,157.171,0,0,0-36.6-3.914,132.761,132.761,0,0,0-32.079,4.406,136.451,136.451,0,0,0-51.185,26.612,168.948,168.948,0,0,0-19.369,18.638,192.973,192.973,0,0,0-15.383,19.806,202.2,202.2,0,0,0-11.518,19.178,175.064,175.064,0,0,0-7.776,16.749,103.916,103.916,0,0,0-6.652,28.711A118.894,118.894,0,0,0,957.12,469a135.346,135.346,0,0,0,17.247,41.532A166.937,166.937,0,0,0,990.274,532a205.885,205.885,0,0,0,21.7,21.386,90.016,90.016,0,0,0,12.279,8.819,88.932,88.932,0,0,0,12.958,6.345,109.411,109.411,0,0,0,27.854,6.667c19.415,2.233,40.4.644,62.615-1.039,15.581-1.18,31.562-2.391,48.033-2.391,5.573,0,11.2.138,16.888.463a222.817,222.817,0,0,1,34.319,4.508c5.939,1.273,11.836,2.825,17.527,4.613,5.994,1.883,11.96,4.091,17.734,6.562,8.581,3.673,17.6,6.866,26.328,9.954,7.414,2.624,15.081,5.338,22.411,8.324a163.4,163.4,0,0,1,21.2,10.252A193.067,193.067,0,0,1,1358.93,635.4a162.16,162.16,0,0,1,23.087,23.811,128.739,128.739,0,0,1,16.961,28.334,108.915,108.915,0,0,1,8.421,32.491,110.338,110.338,0,0,1-.132,21.594,151.75,151.75,0,0,1-3.726,21.11c-3.409,13.931-8.479,27.836-13.381,41.284-4.781,13.116-9.725,26.678-13.052,40.1a147.635,147.635,0,0,0-3.653,20.213,105.061,105.061,0,0,0-.243,20.484A98.236,98.236,0,0,0,1376,900.777,109.152,109.152,0,0,0,1381.232,916a128.783,128.783,0,0,0,7.339,14.5,157.636,157.636,0,0,0,9.123,13.784,220.2,220.2,0,0,0,22.284,25.46c7.464,7.389,15.8,14.815,25.468,22.7,5.212,4.25,10.611,8.547,15.833,12.7,15.2,12.1,30.921,24.607,44.911,38.221a225.657,225.657,0,0,1,19.626,21.515,159.256,159.256,0,0,1,16.032,24.25,116.322,116.322,0,0,1,12.2,69.39,99.083,99.083,0,0,1-3.907,17.012,85.443,85.443,0,0,1-6.882,15.656A70.957,70.957,0,0,1,1520.179,1215.956Z" transform="translate(-12.086 -50.874)"/>
        <path id="Trazado_90" data-name="Trazado 90" class="cls-4" d="M1516.763,1213.924l-.577-.817a77.8,77.8,0,0,0,23.016-25.86,93.314,93.314,0,0,0,7.068-16.084,106.055,106.055,0,0,0,4.171-17.405,116.506,116.506,0,0,0,1.323-18.136,121.459,121.459,0,0,0-1.476-18.275,119.328,119.328,0,0,0-4.224-17.821,111.057,111.057,0,0,0-6.917-16.775c-18.92-36.84-52.995-63.191-85.948-88.675-3.572-2.762-7.265-5.618-10.856-8.425-9.855-7.7-18.3-14.869-25.832-21.909a225.087,225.087,0,0,1-22.839-24.472,160.6,160.6,0,0,1-9.5-13.267,130.028,130.028,0,0,1-7.8-13.992,109.2,109.2,0,0,1-5.783-14.745,97.288,97.288,0,0,1-3.44-15.522,103.487,103.487,0,0,1-.66-20.282,144.279,144.279,0,0,1,2.746-20.084c2.713-13.337,7.03-26.893,11.205-40,4.169-13.089,8.479-26.624,11.312-40.215a158.971,158.971,0,0,0,3-20.558,117.066,117.066,0,0,0-.213-21,122.036,122.036,0,0,0-8.114-32.809,138.61,138.61,0,0,0-15.92-28.932,167.552,167.552,0,0,0-21.739-24.738,196.305,196.305,0,0,0-25.564-20.219,170.735,170.735,0,0,0-23.352-12.752c-8.182-3.766-16.828-7.234-25.189-10.587-7.2-2.886-14.638-5.871-21.832-9.061-5.552-2.462-11.293-4.673-17.063-6.571-5.48-1.8-11.161-3.38-16.886-4.69a216.165,216.165,0,0,0-33.141-4.823c-21.789-1.554-42.755-.27-63.029.971-21.656,1.326-42.11,2.578-61.134.171a110.425,110.425,0,0,1-27.428-6.823A89.293,89.293,0,0,1,1009.2,543.7a205.26,205.26,0,0,1-21.274-20.854,167.625,167.625,0,0,1-15.744-21,136.586,136.586,0,0,1-17.48-40.794,119.783,119.783,0,0,1-3.121-36.451,110.79,110.79,0,0,1,2.2-15.574,97.383,97.383,0,0,1,3.838-13.267,159.109,159.109,0,0,1,7.355-16.657,189.666,189.666,0,0,1,11.035-18.891,185.293,185.293,0,0,1,14.834-19.452,165.078,165.078,0,0,1,18.752-18.333,135.637,135.637,0,0,1,49.736-26.57,132.083,132.083,0,0,1,31.2-4.856,154.483,154.483,0,0,1,35.56,3.01c24.84,4.933,45.3,8.2,64.4,10.294a432.059,432.059,0,0,0,47.085,2.732c6.382,0,12.63-.168,18.78-.5a145.092,145.092,0,0,0,23.695-3.2,153.9,153.9,0,0,0,22.942-6.962,157.078,157.078,0,0,0,21.574-10.39,153.119,153.119,0,0,0,19.588-13.479,142.938,142.938,0,0,0,16.984-16.229,129.478,129.478,0,0,0,13.766-18.639,111.118,111.118,0,0,0,15.429-43.152,157.807,157.807,0,0,0,.968-26.92c-.357-9.083-1.239-18.4-2.092-27.407-1.236-13.058-2.515-26.56-2.223-39.639a129.385,129.385,0,0,1,1.8-19.459,94.74,94.74,0,0,1,5.3-19,91.1,91.1,0,0,1,11.313-20.42,102.373,102.373,0,0,1,15.73-16.943,118.859,118.859,0,0,1,39.863-22.436,144.951,144.951,0,0,1,22.347-5.451,168.31,168.31,0,0,1,22.925-2.081,202.1,202.1,0,0,1,23.182.83c7.474.687,15.253,1.791,23.121,3.282l-.186.982c-7.838-1.485-15.585-2.585-23.027-3.268a201.1,201.1,0,0,0-23.067-.826A167.345,167.345,0,0,0,1483.5-2.2a143.93,143.93,0,0,0-22.192,5.413,117.846,117.846,0,0,0-39.525,22.244,101.368,101.368,0,0,0-15.577,16.776,90.1,90.1,0,0,0-11.189,20.2,93.741,93.741,0,0,0-5.245,18.8,128.4,128.4,0,0,0-1.784,19.31c-.291,13.02.985,26.493,2.219,39.522.854,9.022,1.737,18.351,2.1,27.462a158.792,158.792,0,0,1-.976,27.09,112.112,112.112,0,0,1-15.566,43.539,130.454,130.454,0,0,1-13.872,18.783,143.95,143.95,0,0,1-17.1,16.343,154.125,154.125,0,0,1-19.716,13.568,158.092,158.092,0,0,1-21.712,10.456,154.924,154.924,0,0,1-23.092,7.007,146.076,146.076,0,0,1-23.857,3.219,402.613,402.613,0,0,1-66.026-2.235c-19.125-2.093-39.616-5.368-64.485-10.307A153.487,153.487,0,0,0,1090.569,292a131.084,131.084,0,0,0-30.968,4.819,134.641,134.641,0,0,0-49.37,26.378,164.078,164.078,0,0,0-18.638,18.222,184.287,184.287,0,0,0-14.753,19.346,188.619,188.619,0,0,0-10.977,18.791,158.086,158.086,0,0,0-7.309,16.551,104.258,104.258,0,0,0-5.976,28.564,118.784,118.784,0,0,0,3.1,36.146,135.587,135.587,0,0,0,17.353,40.494,166.633,166.633,0,0,0,15.65,20.873,204.266,204.266,0,0,0,21.169,20.752,88.293,88.293,0,0,0,24.666,14.878,109.44,109.44,0,0,0,27.182,6.76,192.334,192.334,0,0,0,24.109,1.355c11.828,0,24.124-.753,36.838-1.531,20.307-1.243,41.306-2.529,63.162-.97a217.149,217.149,0,0,1,33.293,4.846c5.755,1.316,11.467,2.9,16.975,4.714,5.8,1.908,11.573,4.131,17.156,6.607,7.177,3.183,14.61,6.164,21.8,9.047,8.372,3.358,17.03,6.83,25.235,10.607a171.708,171.708,0,0,1,23.488,12.828,197.342,197.342,0,0,1,25.694,20.323,168.558,168.558,0,0,1,21.869,24.887,139.616,139.616,0,0,1,16.034,29.141,123.035,123.035,0,0,1,8.18,33.078,118.088,118.088,0,0,1,.215,21.178,160,160,0,0,1-3.018,20.686c-2.843,13.641-7.162,27.2-11.338,40.314-4.167,13.085-8.476,26.615-11.178,39.9a143.289,143.289,0,0,0-2.727,19.945,102.5,102.5,0,0,0,.652,20.087,96.271,96.271,0,0,0,3.4,15.361,108.236,108.236,0,0,0,5.73,14.609,129.016,129.016,0,0,0,7.744,13.884,159.539,159.539,0,0,0,9.446,13.184,224.086,224.086,0,0,0,22.739,24.363c7.506,7.02,15.934,14.167,25.765,21.852,3.589,2.8,7.281,5.66,10.851,8.422,33.039,25.55,67.2,51.971,86.225,89.009a112.055,112.055,0,0,1,6.98,16.926,120.361,120.361,0,0,1,4.259,17.971,122.47,122.47,0,0,1,1.489,18.426,117.521,117.521,0,0,1-1.334,18.292,107.039,107.039,0,0,1-4.211,17.57,94.327,94.327,0,0,1-7.144,16.256A78.787,78.787,0,0,1,1516.763,1213.924Z" transform="translate(-11.649 -49.066)"/>
        <path id="Trazado_91" data-name="Trazado 91" class="cls-5" d="M1513.317,1211.678l-.606-.8a86.559,86.559,0,0,0,23.272-27.3,102.838,102.838,0,0,0,7.333-16.694,114.413,114.413,0,0,0,4.475-17.97,122.851,122.851,0,0,0,1.625-18.676,125.7,125.7,0,0,0-1.215-18.812,122.1,122.1,0,0,0-4.043-18.377,113.535,113.535,0,0,0-6.857-17.372,147.4,147.4,0,0,0-8.15-14.332c-2.876-4.465-6.1-8.959-9.58-13.356a224.656,224.656,0,0,0-22.539-24.265c-16.23-15.257-34.5-28.911-52.172-42.116q-2.513-1.878-5.011-3.747c-10.035-7.515-18.578-14.4-26.119-21.054a234.137,234.137,0,0,1-23.292-23.365c-3.6-4.2-6.9-8.464-9.829-12.66a130.9,130.9,0,0,1-8.213-13.372,108.721,108.721,0,0,1-6.291-14.127,95.729,95.729,0,0,1-4.061-14.924,101.469,101.469,0,0,1-1.592-19.959,140.627,140.627,0,0,1,1.8-19.9c2.083-13.255,5.765-26.843,9.325-39.984,3.443-12.707,7-25.847,9.275-39.1a169.957,169.957,0,0,0,2.308-20.059,126.814,126.814,0,0,0-.527-20.511c-2.419-22.187-10.128-43.449-22.914-63.2a175,175,0,0,0-20.519-25.817,199.137,199.137,0,0,0-24.446-21.581,178.7,178.7,0,0,0-26.361-15.982c-9.348-4.743-19.31-9.131-28.945-13.375-5.13-2.259-10.434-4.6-15.615-6.971-5.36-2.457-10.905-4.675-16.482-6.591-5.3-1.82-10.791-3.426-16.33-4.774a211.224,211.224,0,0,0-32.1-5.144c-8.89-.766-17.652-1.046-26.285-1.046-11.886,0-23.531.53-34.953,1.05-10.806.492-21.309.97-31.477.97a203.752,203.752,0,0,1-28.012-1.684,110.706,110.706,0,0,1-26.76-6.927,89.517,89.517,0,0,1-24.375-14.766,203.838,203.838,0,0,1-20.738-20.218,167.471,167.471,0,0,1-15.484-20.391,136.945,136.945,0,0,1-17.586-39.746,119.734,119.734,0,0,1-3.721-35.77,110.671,110.671,0,0,1,1.841-15.424,98.084,98.084,0,0,1,3.51-13.271,144.986,144.986,0,0,1,6.9-16.467,178.465,178.465,0,0,1,24.711-37.513,160.324,160.324,0,0,1,18.025-17.925,133.9,133.9,0,0,1,47.911-26.341,130.465,130.465,0,0,1,30.078-5.267,150.866,150.866,0,0,1,34.275,2.1c23.4,4.048,44.162,6.825,63.479,8.489,11.168.962,22.106,1.568,32.51,1.8,11.2.25,22.2.076,32.7-.516a146.113,146.113,0,0,0,23.04-3.18,154.079,154.079,0,0,0,22.311-6.72,156.4,156.4,0,0,0,21.005-9.956,151.86,151.86,0,0,0,19.123-12.884,141.508,141.508,0,0,0,16.664-15.505,128.07,128.07,0,0,0,13.631-17.818,109.731,109.731,0,0,0,15.878-41.347,157.561,157.561,0,0,0,1.713-26.636c-.094-9.011-.7-18.282-1.283-27.248-.828-12.692-1.684-25.817-1.127-38.578a137.1,137.1,0,0,1,2.065-19.008,100.687,100.687,0,0,1,5.229-18.6,98.93,98.93,0,0,1,11.111-20.684,109,109,0,0,1,15.23-17.4A120.222,120.222,0,0,1,1428.319,7.1a125.945,125.945,0,0,1,20.229-10.155c18.362-7.231,38.775-10.861,60.944-10.861a226.053,226.053,0,0,1,30.371,2.125l-.135.991a225.13,225.13,0,0,0-30.236-2.116c-22.047,0-42.331,3.606-60.578,10.792a124.943,124.943,0,0,0-20.068,10.074,119.222,119.222,0,0,0-18.115,13.775,107.984,107.984,0,0,0-15.091,17.241,97.932,97.932,0,0,0-11,20.475,99.724,99.724,0,0,0-5.177,18.421,136.139,136.139,0,0,0-2.049,18.871c-.554,12.706.3,25.8,1.126,38.469.586,8.979,1.191,18.265,1.285,27.3a158.541,158.541,0,0,1-1.725,26.8,110.722,110.722,0,0,1-16.02,41.722,129.058,129.058,0,0,1-13.738,17.958,142.5,142.5,0,0,1-16.782,15.615,152.859,152.859,0,0,1-19.249,12.969,157.4,157.4,0,0,1-21.14,10.02,155.1,155.1,0,0,1-22.456,6.764,147.131,147.131,0,0,1-23.2,3.2c-10.522.593-21.55.767-32.778.517-10.425-.232-21.385-.839-32.574-1.8-19.345-1.667-40.137-4.448-63.564-8.5a149.847,149.847,0,0,0-34.047-2.083,129.459,129.459,0,0,0-29.848,5.226,132.9,132.9,0,0,0-47.554,26.148,159.32,159.32,0,0,0-17.912,17.813,177.464,177.464,0,0,0-24.571,37.3,143.975,143.975,0,0,0-6.848,16.352,97.066,97.066,0,0,0-3.473,13.135,109.655,109.655,0,0,0-1.824,15.284,118.735,118.735,0,0,0,3.691,35.472,135.951,135.951,0,0,0,17.459,39.456,166.469,166.469,0,0,0,15.392,20.268,202.833,202.833,0,0,0,20.636,20.118,88.523,88.523,0,0,0,24.105,14.6,109.723,109.723,0,0,0,26.521,6.863,202.872,202.872,0,0,0,27.876,1.675c10.15,0,20.634-.477,31.429-.969,19.751-.9,40.174-1.828,61.369,0a212.216,212.216,0,0,1,32.255,5.169c5.569,1.355,11.093,2.97,16.419,4.8,5.608,1.927,11.184,4.157,16.574,6.628,5.174,2.372,10.475,4.707,15.6,6.965,9.647,4.249,19.622,8.643,28.994,13.4a179.684,179.684,0,0,1,26.508,16.073,200.148,200.148,0,0,1,24.569,21.69,175.993,175.993,0,0,1,20.636,25.965c12.872,19.879,20.633,41.287,23.069,63.631,3.042,27.9-4.14,54.4-11.085,80.036-3.717,13.719-7.228,26.676-9.3,39.877a139.679,139.679,0,0,0-1.79,19.757,100.475,100.475,0,0,0,1.575,19.763,94.729,94.729,0,0,0,4.019,14.766,107.723,107.723,0,0,0,6.233,14,129.916,129.916,0,0,0,8.15,13.269c2.908,4.169,6.194,8.4,9.769,12.582a233.112,233.112,0,0,0,23.194,23.266c7.52,6.634,16.043,13.5,26.056,21q2.5,1.87,5.01,3.747c17.692,13.221,35.987,26.893,52.258,42.188a225.652,225.652,0,0,1,22.639,24.372c3.5,4.422,6.744,8.943,9.637,13.435a148.4,148.4,0,0,1,8.205,14.43,114.517,114.517,0,0,1,6.918,17.525,123.1,123.1,0,0,1,4.076,18.528,126.68,126.68,0,0,1,1.224,18.962,123.863,123.863,0,0,1-1.639,18.829,115.41,115.41,0,0,1-4.514,18.127,103.832,103.832,0,0,1-7.4,16.857A87.551,87.551,0,0,1,1513.317,1211.678Z" transform="translate(-11.2 -47.043)"/>
        <path id="Trazado_92" data-name="Trazado 92" class="cls-6" d="M1509.855,1209.216l-.633-.774a96.358,96.358,0,0,0,23.524-28.732,113.057,113.057,0,0,0,7.6-17.3,123.246,123.246,0,0,0,4.777-18.533,129.815,129.815,0,0,0,.974-38.565,124.968,124.968,0,0,0-3.86-18.934,116.094,116.094,0,0,0-6.794-17.972,146.253,146.253,0,0,0-8.446-15.219,168.443,168.443,0,0,0-10.067-14.145,223.566,223.566,0,0,0-23.939-25.559c-7.791-7.2-16.7-14.636-27.241-22.73-9.2-7.066-18.689-13.909-28.409-20.88-10.4-7.455-18.784-13.874-26.4-20.2a245.641,245.641,0,0,1-23.746-22.259c-3.7-4.005-7.114-8.06-10.155-12.053a132.514,132.514,0,0,1-8.624-12.75,108.825,108.825,0,0,1-6.8-13.508,94.7,94.7,0,0,1-4.683-14.325,99.874,99.874,0,0,1-2.563-19.706,137.674,137.674,0,0,1,.841-19.793c1.446-13.231,4.355-26.31,7.435-40.156,5.5-24.727,11.188-50.3,8.079-77.216a164.49,164.49,0,0,0-21.792-64.671,183.591,183.591,0,0,0-19.3-26.9,200.769,200.769,0,0,0-23.332-22.921,153.764,153.764,0,0,0-14.479-10.656c-4.779-3.129-9.948-6.206-15.8-9.406-10.889-5.951-22.59-11.448-33.9-16.764-2.388-1.122-4.857-2.282-7.282-3.429-5.168-2.445-10.517-4.662-15.9-6.59-5.113-1.832-10.419-3.461-15.772-4.844a207.014,207.014,0,0,0-31.057-5.451,320.284,320.284,0,0,0-32.605-1.481c-9.077,0-18.013.255-26.814.506-8.442.241-16.693.477-24.741.477a220.308,220.308,0,0,1-33.125-2.1,111.269,111.269,0,0,1-26.1-7.041,89.968,89.968,0,0,1-23.818-14.5,202.491,202.491,0,0,1-20.2-19.582,167.473,167.473,0,0,1-15.224-19.782,137.429,137.429,0,0,1-17.69-38.7,119.753,119.753,0,0,1-4.321-35.09,110.572,110.572,0,0,1,1.482-15.275,98.7,98.7,0,0,1,3.179-13.277,132.993,132.993,0,0,1,6.44-16.276,165.791,165.791,0,0,1,9.972-18.139,168.961,168.961,0,0,1,13.593-18.557,155.742,155.742,0,0,1,17.3-17.523,132.236,132.236,0,0,1,46.085-26.117,128.9,128.9,0,0,1,28.945-5.671,147.3,147.3,0,0,1,32.975,1.2c22.456,3.282,42.924,5.479,62.571,6.716,10.981.691,21.8,1.077,32.162,1.147,11.051.074,21.946-.209,32.38-.841a146.537,146.537,0,0,0,22.389-3.127,153.762,153.762,0,0,0,21.683-6.463,155.448,155.448,0,0,0,20.441-9.521,150.6,150.6,0,0,0,18.661-12.3,140.216,140.216,0,0,0,16.345-14.8,126.944,126.944,0,0,0,13.5-17.013,108.583,108.583,0,0,0,16.314-39.553,157.032,157.032,0,0,0,2.482-26.422c.172-8.964-.154-18.217-.47-27.167-.435-12.309-.884-25.036-.069-37.454a145.486,145.486,0,0,1,2.327-18.518,105.466,105.466,0,0,1,16.058-39.127,116.428,116.428,0,0,1,14.734-17.865,126.468,126.468,0,0,1,17.614-14.568,131.672,131.672,0,0,1,19.532-11.07,162,162,0,0,1,44.254-12.85,206.719,206.719,0,0,1,46.8-1.2l-.083,1a205.72,205.72,0,0,0-46.575,1.2A161,161,0,0,0,1436.505-7.68a130.68,130.68,0,0,0-19.384,10.986,125.472,125.472,0,0,0-17.475,14.452,115.429,115.429,0,0,0-14.608,17.711,104.465,104.465,0,0,0-15.909,38.764,144.532,144.532,0,0,0-2.311,18.391c-.811,12.367-.363,25.07.07,37.353.317,8.963.644,18.23.471,27.221a158.029,158.029,0,0,1-2.5,26.59,109.576,109.576,0,0,1-16.461,39.917,127.962,127.962,0,0,1-13.6,17.147,141.238,141.238,0,0,1-16.462,14.9,151.592,151.592,0,0,1-18.785,12.381,156.441,156.441,0,0,1-20.573,9.582,154.759,154.759,0,0,1-21.825,6.505,147.546,147.546,0,0,1-22.542,3.148c-10.456.633-21.372.917-32.446.842-10.379-.07-21.219-.456-32.219-1.149-19.675-1.239-40.169-3.438-62.653-6.724a146.3,146.3,0,0,0-32.75-1.192,127.9,127.9,0,0,0-28.72,5.626,131.241,131.241,0,0,0-45.737,25.923,154.729,154.729,0,0,0-17.191,17.41,167.959,167.959,0,0,0-13.512,18.447,164.782,164.782,0,0,0-9.912,18.029,131.975,131.975,0,0,0-6.392,16.153,97.67,97.67,0,0,0-3.147,13.142,109.548,109.548,0,0,0-1.468,15.136,118.745,118.745,0,0,0,4.286,34.8,136.427,136.427,0,0,0,17.562,38.415,166.441,166.441,0,0,0,15.133,19.663,201.479,201.479,0,0,0,20.1,19.484,88.961,88.961,0,0,0,23.555,14.337,110.282,110.282,0,0,0,25.869,6.977,219.456,219.456,0,0,0,32.979,2.084c8.036,0,16.273-.235,24.708-.476,8.809-.251,17.758-.507,26.846-.507a321.177,321.177,0,0,1,32.7,1.486,207.965,207.965,0,0,1,31.206,5.478c5.382,1.39,10.718,3.028,15.859,4.87,5.413,1.939,10.793,4.169,15.99,6.628,2.425,1.147,4.893,2.307,7.28,3.428,11.328,5.322,23.043,10.826,33.959,16.791,5.879,3.213,11.071,6.3,15.872,9.446a154.794,154.794,0,0,1,14.572,10.725,201.79,201.79,0,0,1,23.449,23.036,184.608,184.608,0,0,1,19.4,27.046,165.483,165.483,0,0,1,21.922,65.062c3.128,27.088-2.578,52.74-8.1,77.547-3.074,13.819-5.977,26.872-7.417,40.048a136.733,136.733,0,0,0-.835,19.65,98.9,98.9,0,0,0,2.536,19.509,93.649,93.649,0,0,0,4.633,14.172,107.812,107.812,0,0,0,6.737,13.384,131.536,131.536,0,0,0,8.558,12.654c3.022,3.967,6.418,8,10.094,11.98a244.681,244.681,0,0,0,23.65,22.168c7.6,6.312,15.969,12.718,26.345,20.158,9.727,6.976,19.222,13.824,28.436,20.9,10.564,8.113,19.5,15.567,27.311,22.789a224.529,224.529,0,0,1,24.045,25.673,169.333,169.333,0,0,1,10.127,14.229,147.222,147.222,0,0,1,8.5,15.323,117.1,117.1,0,0,1,6.853,18.127,125.99,125.99,0,0,1,3.891,19.086,130.816,130.816,0,0,1-.982,38.863,124.233,124.233,0,0,1-4.816,18.684,114.055,114.055,0,0,1-7.664,17.456A97.352,97.352,0,0,1,1509.855,1209.216Z" transform="translate(-10.736 -44.804)"/>
        <path id="Trazado_93" data-name="Trazado 93" class="cls-7" d="M1506.378,1206.548l-.658-.753a107.344,107.344,0,0,0,23.775-30.166,124.066,124.066,0,0,0,7.858-17.91,132.5,132.5,0,0,0,5.078-19.095,136.3,136.3,0,0,0,2.228-19.754,134.556,134.556,0,0,0-.691-19.887,122.612,122.612,0,0,0-10.4-38.066c-8.927-19.353-22.771-37.586-42.324-55.742a354.191,354.191,0,0,0-27.523-22.862c-10.153-7.68-20.309-14.747-28.9-20.646-10.7-7.345-19.181-13.493-26.689-19.35a260.451,260.451,0,0,1-24.217-21.146c-16.516-16.526-27.017-32.945-32.1-50.2a98.244,98.244,0,0,1-3.619-19.542,134.77,134.77,0,0,1-.159-19.8c.8-13.287,3.1-26.557,5.538-40.605,4.127-23.77,8.394-48.349,5.232-74.288a190.162,190.162,0,0,0-20.664-66.163,196.244,196.244,0,0,0-40.3-52.225c-8.95-8.294-19.941-16.2-33.6-24.179-12.228-7.14-25.15-13.535-38.418-20-4.975-2.424-10.129-4.635-15.317-6.57-4.929-1.838-10.046-3.487-15.211-4.9a203.456,203.456,0,0,0-30-5.745c-19.79-2.348-39-2.151-57.577-1.961-19.879.2-38.656.4-56.262-2.544A112.153,112.153,0,0,1,1026,525.286a90.653,90.653,0,0,1-23.268-14.236A201.356,201.356,0,0,1,983.063,492.1,167.6,167.6,0,0,1,968.1,472.933a138.037,138.037,0,0,1-17.792-37.647,119.816,119.816,0,0,1-4.92-34.408,110.393,110.393,0,0,1,1.122-15.127,99.176,99.176,0,0,1,2.847-13.285,122.791,122.791,0,0,1,5.99-16.087,155.326,155.326,0,0,1,9.45-17.772,161.363,161.363,0,0,1,12.982-18.122,151.282,151.282,0,0,1,16.585-17.13,130.654,130.654,0,0,1,44.259-25.9,127.394,127.394,0,0,1,27.8-6.066,143.786,143.786,0,0,1,31.659.322c21.229,2.5,41.979,4.164,61.673,4.938a617.385,617.385,0,0,0,63.865-.668,147.22,147.22,0,0,0,21.739-3.072,154.206,154.206,0,0,0,40.939-15.294,149.55,149.55,0,0,0,18.2-11.716,139.15,139.15,0,0,0,16.029-14.089,126,126,0,0,0,13.359-16.208,107.565,107.565,0,0,0,16.736-37.755,156.742,156.742,0,0,0,3.293-26.306c.448-8.95.407-18.222.367-27.19-.053-11.895-.108-24.194.954-36.235a155.458,155.458,0,0,1,2.573-17.975,114.745,114.745,0,0,1,5.095-17.676,117.476,117.476,0,0,1,10.666-21.241,125.216,125.216,0,0,1,14.239-18.335,133.814,133.814,0,0,1,16.962-15.245,138.137,138.137,0,0,1,18.836-11.972,165.614,165.614,0,0,1,43.748-15.523,200.766,200.766,0,0,1,47.047-3.847l-.032,1a199.762,199.762,0,0,0-46.812,3.826,164.615,164.615,0,0,0-43.484,15.428,137.124,137.124,0,0,0-18.7,11.885,132.819,132.819,0,0,0-16.834,15.131,124.212,124.212,0,0,0-14.125,18.188,116.462,116.462,0,0,0-10.575,21.059,113.742,113.742,0,0,0-5.05,17.524,154.534,154.534,0,0,0-2.557,17.86c-1.058,11.994-1,24.271-.95,36.143.04,8.981.082,18.267-.368,27.244a157.723,157.723,0,0,1-3.316,26.473,108.553,108.553,0,0,1-16.889,38.106,126.971,126.971,0,0,1-13.465,16.337,140.175,140.175,0,0,1-16.144,14.191,150.575,150.575,0,0,1-18.325,11.794,155.214,155.214,0,0,1-41.2,15.393,148.241,148.241,0,0,1-21.888,3.093c-12.2.792-24.866,1.188-37.848,1.189q-12.868,0-26.12-.52c-19.721-.775-40.5-2.438-61.751-4.944a142.782,142.782,0,0,0-31.439-.32,126.4,126.4,0,0,0-27.585,6.018,129.664,129.664,0,0,0-43.921,25.7,150.3,150.3,0,0,0-16.474,17.017,160.347,160.347,0,0,0-12.9,18.009,154.335,154.335,0,0,0-9.39,17.657,121.822,121.822,0,0,0-5.941,15.955,98.2,98.2,0,0,0-2.818,13.15,109.365,109.365,0,0,0-1.112,14.989A118.815,118.815,0,0,0,951.269,435a137.037,137.037,0,0,0,17.664,37.374,166.6,166.6,0,0,0,14.873,19.057,200.33,200.33,0,0,0,19.567,18.85,89.652,89.652,0,0,0,23.013,14.079,111.163,111.163,0,0,0,25.225,7.1c17.52,2.925,36.253,2.733,56.087,2.53,18.609-.191,37.852-.388,57.705,1.968a204.427,204.427,0,0,1,30.149,5.774c5.194,1.421,10.34,3.078,15.3,4.927,5.218,1.946,10.4,4.169,15.405,6.608,13.286,6.474,26.227,12.879,38.484,20.036,13.724,8.014,24.773,15.966,33.777,24.31a197.242,197.242,0,0,1,40.5,52.491,191.159,191.159,0,0,1,20.772,66.509c3.18,26.086-1.1,50.739-5.239,74.58-2.434,14.02-4.733,27.263-5.525,40.494a133.806,133.806,0,0,0,.157,19.654,97.265,97.265,0,0,0,3.583,19.345c5.037,17.087,15.455,33.368,31.851,49.772a259.435,259.435,0,0,0,24.125,21.065c7.491,5.844,15.956,11.981,26.64,19.314,8.6,5.906,18.772,12.98,28.941,20.673a355.21,355.21,0,0,1,27.6,22.926c19.651,18.247,33.569,36.583,42.552,56.057a123.61,123.61,0,0,1,10.489,38.376,135.506,135.506,0,0,1,.7,20.035,137.319,137.319,0,0,1-2.244,19.9,133.525,133.525,0,0,1-5.116,19.24,125.069,125.069,0,0,1-7.922,18.054A108.337,108.337,0,0,1,1506.378,1206.548Z" transform="translate(-10.258 -42.36)"/>
        <path id="Trazado_94" data-name="Trazado 94" class="cls-8" d="M1502.884,1203.71l-.681-.732a119.648,119.648,0,0,0,24.022-31.6,135.9,135.9,0,0,0,8.118-18.516,142.8,142.8,0,0,0,7.906-39.948,139.141,139.141,0,0,0-.428-20.424,125.461,125.461,0,0,0-10.147-39.229,144.086,144.086,0,0,0-8.2-15.683,163.647,163.647,0,0,0-9.946-14.6c-3.466-4.55-7.309-9.125-11.421-13.6-3.883-4.224-8.132-8.492-12.628-12.687a325.8,325.8,0,0,0-27.8-22.994c-8.517-6.348-17.859-12.834-29.4-20.41-7.574-4.972-17.483-11.569-26.964-18.5a279.391,279.391,0,0,1-24.673-20.037,154.23,154.23,0,0,1-20.26-22.337,110.131,110.131,0,0,1-7.809-12.273,93.353,93.353,0,0,1-5.9-13.135c-9.161-25.641-5.85-52.387-2.344-80.7,2.807-22.673,5.709-46.119,2.532-70.9a223.813,223.813,0,0,0-19.529-67.67,201.669,201.669,0,0,0-37.969-54.615c-19.739-20.2-46.545-35.058-72.573-48.106-4.784-2.4-9.741-4.6-14.734-6.533-4.744-1.84-9.673-3.5-14.65-4.944a200.591,200.591,0,0,0-28.943-6.027c-19.111-2.606-37.719-2.782-55.714-2.953-19.3-.183-37.528-.356-54.672-3.487a113.384,113.384,0,0,1-24.8-7.3,91.6,91.6,0,0,1-22.725-13.982,200.414,200.414,0,0,1-19.129-18.308,167.928,167.928,0,0,1-14.7-18.562,138.8,138.8,0,0,1-17.892-36.6A119.947,119.947,0,0,1,943.3,392.6a110.161,110.161,0,0,1,.762-14.979,99.578,99.578,0,0,1,2.512-13.294,114.116,114.116,0,0,1,5.545-15.9,145.794,145.794,0,0,1,8.935-17.412,154.188,154.188,0,0,1,12.377-17.7,147.009,147.009,0,0,1,15.872-16.747,129.17,129.17,0,0,1,42.432-25.685,125.955,125.955,0,0,1,26.653-6.45,140.338,140.338,0,0,1,30.328-.533c20.308,1.791,40.76,2.853,60.788,3.156,21.55.327,42.806-.224,63.177-1.637a152.705,152.705,0,0,0,78.6-28.757,130.971,130.971,0,0,0,28.937-28.788,106.678,106.678,0,0,0,17.142-35.954,156.571,156.571,0,0,0,4.16-26.3c.737-8.977.991-18.311,1.237-27.338.311-11.445.634-23.279,1.928-34.9a167.459,167.459,0,0,1,2.8-17.369,123.717,123.717,0,0,1,5-17.122,131.571,131.571,0,0,1,24.186-40.336A142.4,142.4,0,0,1,1392.984-7.37a145.386,145.386,0,0,1,18.141-12.863,169.337,169.337,0,0,1,43.243-18.2,195.831,195.831,0,0,1,47.292-6.481l.017,1a194.831,194.831,0,0,0-47.05,6.446,168.34,168.34,0,0,0-42.987,18.1A144.4,144.4,0,0,0,1393.623-6.6a141.405,141.405,0,0,0-16.194,15.811,130.582,130.582,0,0,0-24,40.03,122.73,122.73,0,0,0-4.96,16.986,166.456,166.456,0,0,0-2.782,17.266c-1.29,11.581-1.611,23.394-1.922,34.818-.246,9.041-.5,18.389-1.24,27.393a157.521,157.521,0,0,1-4.188,26.47,107.677,107.677,0,0,1-17.3,36.29,131.973,131.973,0,0,1-29.156,29.009,153.718,153.718,0,0,1-79.124,28.948c-20.4,1.415-41.682,1.966-63.261,1.639-20.051-.3-40.528-1.367-60.86-3.16a139.339,139.339,0,0,0-30.112.529,124.944,124.944,0,0,0-26.441,6.4,128.172,128.172,0,0,0-42.1,25.488,146.013,146.013,0,0,0-15.763,16.632,153.147,153.147,0,0,0-12.3,17.581,144.766,144.766,0,0,0-8.874,17.292,113.082,113.082,0,0,0-5.5,15.758,98.559,98.559,0,0,0-2.487,13.16,109.148,109.148,0,0,0-.755,14.842,118.953,118.953,0,0,0,5.474,33.446,137.81,137.81,0,0,0,17.764,36.331,166.924,166.924,0,0,0,14.612,18.451,199.406,199.406,0,0,0,19.032,18.216,90.595,90.595,0,0,0,22.479,13.83,112.4,112.4,0,0,0,24.588,7.233c17.059,3.115,35.246,3.288,54.5,3.471,18.026.171,36.667.348,55.84,2.962a201.575,201.575,0,0,1,29.086,6.057c5.005,1.448,9.962,3.121,14.734,4.972,5.022,1.948,10.009,4.159,14.821,6.571,26.106,13.086,53,28,72.84,48.3a202.665,202.665,0,0,1,38.157,54.885,224.813,224.813,0,0,1,19.617,67.972c3.193,24.9.283,48.414-2.531,71.149-3.491,28.2-6.788,54.827,2.293,80.245a92.352,92.352,0,0,0,5.839,12.994,109.088,109.088,0,0,0,7.738,12.16,153.235,153.235,0,0,0,20.131,22.192,278.419,278.419,0,0,0,24.585,19.965c9.462,6.921,19.358,13.509,26.922,18.475,11.557,7.588,20.915,14.084,29.449,20.444a326.788,326.788,0,0,1,27.887,23.065c4.515,4.212,8.782,8.5,12.682,12.742,4.133,4.5,8,9.094,11.48,13.668a164.649,164.649,0,0,1,10.007,14.686,145.091,145.091,0,0,1,8.26,15.792,126.466,126.466,0,0,1,10.229,39.541,140.181,140.181,0,0,1,.431,20.571,143.8,143.8,0,0,1-7.961,40.229,136.94,136.94,0,0,1-8.178,18.652A120.646,120.646,0,0,1,1502.884,1203.71Z" transform="translate(-9.764 -39.746)"/>
        <path id="Trazado_95" data-name="Trazado 95" class="cls-9" d="M1499.37,1200.838l-.7-.712a133.474,133.474,0,0,0,24.267-33.031,150.009,150.009,0,0,0,14.053-39.337,146.682,146.682,0,0,0,2.663-41.792,128.4,128.4,0,0,0-9.886-40.4,143.444,143.444,0,0,0-8.087-15.913,161.862,161.862,0,0,0-9.886-14.821,206.315,206.315,0,0,0-24.1-26.651,302.262,302.262,0,0,0-28.078-23.129c-8.866-6.512-18.646-13.11-29.9-20.171-18.708-11.74-36.79-23.372-52.362-36.588a160.262,160.262,0,0,1-21-21.1,112.122,112.122,0,0,1-8.318-11.652,93.793,93.793,0,0,1-6.522-12.537,97.355,97.355,0,0,1-5.936-19.51,132.587,132.587,0,0,1-2.293-20.18c-.581-13.667.451-27.632,1.543-42.417,1.579-21.382,3.212-43.492.069-66.863a294.253,294.253,0,0,0-7.086-35.982,248.69,248.69,0,0,0-11.3-33.209,217.127,217.127,0,0,0-15.615-30.159,199.535,199.535,0,0,0-20.033-26.833,158.616,158.616,0,0,0-15.563-15.166,214.4,214.4,0,0,0-17.755-13.539,367.427,367.427,0,0,0-39.807-23.327,168.645,168.645,0,0,0-28.241-11.456,198.468,198.468,0,0,0-27.88-6.3c-18.429-2.859-36.428-3.414-53.834-3.95-18.724-.576-36.409-1.121-53.093-4.449a115.033,115.033,0,0,1-24.163-7.441,94.651,94.651,0,0,1-11.36-5.95,93.3,93.3,0,0,1-10.827-7.786,199.7,199.7,0,0,1-18.592-17.671,168.474,168.474,0,0,1-14.437-17.952,139.715,139.715,0,0,1-17.99-35.542,120.138,120.138,0,0,1-6.118-33.045,104.561,104.561,0,0,1,2.575-28.138,106.609,106.609,0,0,1,5.105-15.712,137.049,137.049,0,0,1,8.427-17.059,147.316,147.316,0,0,1,11.779-17.282,142.934,142.934,0,0,1,15.164-16.374,127.764,127.764,0,0,1,40.6-25.477,124.582,124.582,0,0,1,25.495-6.824,136.968,136.968,0,0,1,28.982-1.362c19.358,1.1,39.516,1.56,59.913,1.368,20.79-.2,41.81-1.071,62.478-2.6a152.988,152.988,0,0,0,76.342-27.433,130.439,130.439,0,0,0,28.488-27.28,105.946,105.946,0,0,0,17.53-34.148,156.549,156.549,0,0,0,5.1-26.433c1.044-9.052,1.608-18.5,2.153-27.639,1.315-22.042,2.675-44.834,10.712-66.613a145.04,145.04,0,0,1,23.464-41.106,152.756,152.756,0,0,1,33.106-30.344,173.032,173.032,0,0,1,42.735-20.9,191.941,191.941,0,0,1,47.538-9.1l.065,1a190.942,190.942,0,0,0-47.29,9.056,172.033,172.033,0,0,0-42.489,20.776A151.768,151.768,0,0,0,1366.289,4.8a144.042,144.042,0,0,0-23.3,40.823c-7.986,21.64-9.341,44.357-10.652,66.326-.546,9.152-1.111,18.615-2.158,27.694a157.5,157.5,0,0,1-5.134,26.6,106.946,106.946,0,0,1-17.693,34.471,131.437,131.437,0,0,1-28.705,27.491,153.987,153.987,0,0,1-76.846,27.615c-20.689,1.531-41.731,2.406-62.542,2.6-20.42.193-40.6-.268-59.979-1.37a135.965,135.965,0,0,0-28.77,1.352,123.59,123.59,0,0,0-25.29,6.769,126.772,126.772,0,0,0-40.288,25.28,141.9,141.9,0,0,0-15.057,16.259,146.294,146.294,0,0,0-11.7,17.164,136.023,136.023,0,0,0-8.365,16.934,105.6,105.6,0,0,0-5.058,15.563,103.56,103.56,0,0,0-2.549,27.869,119.134,119.134,0,0,0,6.067,32.77A138.721,138.721,0,0,0,966.13,452.3a182.315,182.315,0,0,0,32.849,35.425,92.309,92.309,0,0,0,10.71,7.7,93.664,93.664,0,0,0,11.24,5.887,114.044,114.044,0,0,0,23.955,7.375c16.6,3.312,34.247,3.855,52.928,4.43,17.437.537,35.467,1.092,53.957,3.961a199.444,199.444,0,0,1,28.019,6.329,172.015,172.015,0,0,1,28.406,11.524,368.423,368.423,0,0,1,39.916,23.392,215.4,215.4,0,0,1,17.839,13.6,159.624,159.624,0,0,1,15.661,15.262,200.531,200.531,0,0,1,20.134,26.968,218.122,218.122,0,0,1,15.687,30.3,249.677,249.677,0,0,1,11.345,33.343,295.291,295.291,0,0,1,7.111,36.1c3.157,23.474,1.52,45.637-.063,67.07-1.09,14.755-2.119,28.693-1.541,42.3a131.611,131.611,0,0,0,2.275,20.029,96.37,96.37,0,0,0,5.875,19.312,92.8,92.8,0,0,0,6.452,12.4,111.125,111.125,0,0,0,8.244,11.547A159.273,159.273,0,0,0,1378,907.534c15.521,13.173,33.57,24.784,52.246,36.5,11.272,7.074,21.072,13.685,29.958,20.212a303.226,303.226,0,0,1,28.17,23.206,207.276,207.276,0,0,1,24.217,26.781,162.831,162.831,0,0,1,9.948,14.913,144.46,144.46,0,0,1,8.143,16.024,129.394,129.394,0,0,1,9.964,40.71,147.674,147.674,0,0,1-2.68,42.077,151.016,151.016,0,0,1-14.146,39.6A134.476,134.476,0,0,1,1499.37,1200.838Z" transform="translate(-9.252 -37.096)"/>
        <path id="Trazado_96" data-name="Trazado 96" class="cls-9" d="M1495.838,1197.966l-.722-.692a149.036,149.036,0,0,0,24.51-34.462,162.274,162.274,0,0,0,14.607-40.5,152.846,152.846,0,0,0,3.225-42.868,131.392,131.392,0,0,0-9.62-41.564,143.053,143.053,0,0,0-7.973-16.142,160.3,160.3,0,0,0-9.828-15.047,200.94,200.94,0,0,0-24.15-27.019c-15.666-14.762-34.883-28.892-58.748-43.2l-.63-.378c-18.124-10.862-36.865-22.094-52.724-34.473a167.023,167.023,0,0,1-21.58-19.771,114.663,114.663,0,0,1-8.766-10.974,94.855,94.855,0,0,1-7.1-11.873,97.779,97.779,0,0,1-7.283-19.694,132.931,132.931,0,0,1-3.478-20.634c-1.331-14.052-.976-28.6-.6-44,.484-19.84.984-40.356-2.062-62.006-1.813-12.882-4.126-25.207-6.877-36.631a292.021,292.021,0,0,0-10.358-34.091A231.069,231.069,0,0,0,1291.3,610.7a197.7,197.7,0,0,0-18.952-28.11,157.882,157.882,0,0,0-15.376-16.333,206.489,206.489,0,0,0-17.794-14.634,320.7,320.7,0,0,0-40.51-24.989,167.18,167.18,0,0,0-27.1-11.412,197.1,197.1,0,0,0-26.813-6.556c-17.743-3.109-35.127-4.044-51.939-4.948-18.151-.976-35.3-1.9-51.521-5.429a117.181,117.181,0,0,1-23.525-7.591,96.518,96.518,0,0,1-11.081-5.886,94.656,94.656,0,0,1-10.575-7.609,183.555,183.555,0,0,1-32.227-34.373A140.827,140.827,0,0,1,945.8,408.336a120.366,120.366,0,0,1-6.715-32.363,104.438,104.438,0,0,1,1.871-28,115.3,115.3,0,0,1,12.6-32.244,140.906,140.906,0,0,1,11.187-16.88,138.981,138.981,0,0,1,14.46-16.012,124.783,124.783,0,0,1,90.726-34.622q10.442.247,21.424.247c30.359,0,63.683-1.417,99.394-4.232a153.121,153.121,0,0,0,39.013-8.338,151.027,151.027,0,0,0,35.085-17.772,130.156,130.156,0,0,0,28.042-25.775,105.372,105.372,0,0,0,17.9-32.343,156.591,156.591,0,0,0,6.136-26.722c1.375-9.185,2.268-18.813,3.131-28.124,1.943-20.96,3.953-42.634,11.537-63.489A162.536,162.536,0,0,1,1386.1-32.114a176.672,176.672,0,0,1,42.225-23.6,189.074,189.074,0,0,1,47.787-11.72l.112.994a188.078,188.078,0,0,0-47.534,11.658A175.678,175.678,0,0,0,1386.7-31.317a161.536,161.536,0,0,0-54.169,73.322c-7.54,20.734-9.544,42.343-11.481,63.24-.865,9.324-1.759,18.967-3.138,28.18a157.545,157.545,0,0,1-6.177,26.892,106.371,106.371,0,0,1-18.067,32.65,131.16,131.16,0,0,1-28.256,25.974,152.025,152.025,0,0,1-35.318,17.89,154.111,154.111,0,0,1-39.268,8.392c-35.733,2.817-69.09,4.235-99.473,4.235q-10.989,0-21.448-.248a123.783,123.783,0,0,0-90.015,34.349,137.977,137.977,0,0,0-14.355,15.9,139.87,139.87,0,0,0-11.107,16.759,114.289,114.289,0,0,0-12.489,31.957,103.433,103.433,0,0,0-1.852,27.736A119.369,119.369,0,0,0,946.746,408,139.831,139.831,0,0,0,964.7,442.245a182.546,182.546,0,0,0,32.051,34.183,92.945,92.945,0,0,0,21.427,13.353,116.2,116.2,0,0,0,23.327,7.526c16.147,3.514,33.252,4.434,51.362,5.407,16.841.906,34.256,1.842,52.058,4.962a198.071,198.071,0,0,1,26.948,6.589,168.167,168.167,0,0,1,27.26,11.48,321.686,321.686,0,0,1,40.635,25.068,207.516,207.516,0,0,1,17.88,14.706,158.881,158.881,0,0,1,15.474,16.437,198.708,198.708,0,0,1,19.049,28.253,232.072,232.072,0,0,1,14.445,31.385,293,293,0,0,1,10.393,34.208c2.758,11.455,5.078,23.811,6.9,36.725,3.058,21.731,2.556,42.289,2.072,62.17-.375,15.373-.729,29.893.6,43.885a131.947,131.947,0,0,0,3.452,20.48,96.794,96.794,0,0,0,7.209,19.5,93.848,93.848,0,0,0,7.022,11.747,113.7,113.7,0,0,0,8.69,10.878,166.058,166.058,0,0,0,21.453,19.652c15.811,12.341,34.525,23.557,52.623,34.4l.63.378c23.928,14.341,43.2,28.513,58.92,43.326a201.978,201.978,0,0,1,24.27,27.155,161.339,161.339,0,0,1,9.889,15.141,144.008,144.008,0,0,1,8.029,16.255,132.391,132.391,0,0,1,9.695,41.88,153.841,153.841,0,0,1-3.245,43.148,163.264,163.264,0,0,1-14.7,40.751A150.045,150.045,0,0,1,1495.838,1197.966Z" transform="translate(-8.722 -34.446)"/>
        <path id="Trazado_97" data-name="Trazado 97" class="cls-10" d="M1492.286,1195.094l-.74-.673a166.609,166.609,0,0,0,24.751-35.893,175.3,175.3,0,0,0,15.158-41.664,159.189,159.189,0,0,0,3.787-43.942,134.466,134.466,0,0,0-9.349-42.735,142.814,142.814,0,0,0-7.862-16.371,159.113,159.113,0,0,0-9.77-15.273,196.188,196.188,0,0,0-24.2-27.391,268.987,268.987,0,0,0-28.622-23.4c-9.408-6.716-19.8-13.338-30.9-19.684-2.2-1.261-4.446-2.538-6.613-3.773-8.61-4.905-17.512-9.978-25.938-15.087-9.439-5.724-17.33-10.928-24.122-15.909a167.811,167.811,0,0,1-20.789-17.732,116.154,116.154,0,0,1-8.668-9.864,96.222,96.222,0,0,1-7.26-10.7,98.8,98.8,0,0,1-8.818-20.055,134.372,134.372,0,0,1-4.785-21.332c-2.145-14.619-2.51-29.976-2.9-46.235-.427-17.971-.868-36.553-3.736-56.085-2.018-13.744-4.2-25.939-6.666-37.282a345.55,345.55,0,0,0-9.408-34.978A246.524,246.524,0,0,0,1281.7,606.7a195.534,195.534,0,0,0-17.883-29.377,157.032,157.032,0,0,0-15.184-17.5,200.136,200.136,0,0,0-17.835-15.725c-6.087-4.778-12.778-9.515-19.885-14.081-6.613-4.248-13.79-8.478-21.332-12.572a166.293,166.293,0,0,0-25.962-11.346,196.614,196.614,0,0,0-25.746-6.8c-17.056-3.355-33.82-4.673-50.033-5.947-17.58-1.382-34.185-2.686-49.954-6.427a119.923,119.923,0,0,1-22.889-7.75A95.978,95.978,0,0,1,993.872,465.9a184.086,184.086,0,0,1-31.423-33.124,142.127,142.127,0,0,1-18.178-33.432,120.662,120.662,0,0,1-7.313-31.681,104.207,104.207,0,0,1,1.163-27.873,108.812,108.812,0,0,1,11.671-31.73,135.419,135.419,0,0,1,24.36-32.155,123.48,123.48,0,0,1,86.349-35.54c17.377-.2,36.414-.93,58.2-2.236,17.663-1.059,37.063-2.489,61.05-4.5a155.311,155.311,0,0,0,37.766-8.021,151.735,151.735,0,0,0,34.109-16.765,130.163,130.163,0,0,0,27.6-24.272,104.964,104.964,0,0,0,18.246-30.537,154.5,154.5,0,0,0,7.3-27.2c1.738-9.388,2.929-18.833,4.191-28.832,2.491-19.75,5.068-40.172,12.155-59.955a181.475,181.475,0,0,1,22.007-42.672,173.67,173.67,0,0,1,30.434-33.432,180.194,180.194,0,0,1,41.71-26.307A187.162,187.162,0,0,1,1463.3-78.687l.156.988a186.164,186.164,0,0,0-47.784,14.25A179.2,179.2,0,0,0,1374.2-37.288a172.671,172.671,0,0,0-30.259,33.239,180.473,180.473,0,0,0-21.886,42.436c-7.051,19.679-9.62,40.046-12.1,59.743-1.263,10.014-2.456,19.472-4.2,28.889a155.466,155.466,0,0,1-7.347,27.371,105.964,105.964,0,0,1-18.418,30.829,131.151,131.151,0,0,1-27.809,24.459,152.725,152.725,0,0,1-34.334,16.876,156.314,156.314,0,0,1-38.009,8.073c-24,2.012-43.4,3.442-61.073,4.5-21.8,1.307-40.852,2.04-58.246,2.238a122.48,122.48,0,0,0-85.662,35.256,134.424,134.424,0,0,0-24.179,31.916,107.8,107.8,0,0,0-11.566,31.432,103.209,103.209,0,0,0-1.151,27.605,119.655,119.655,0,0,0,7.253,31.418,141.119,141.119,0,0,0,18.051,33.2,183.065,183.065,0,0,0,31.252,32.942,94.982,94.982,0,0,0,20.907,13.123,118.933,118.933,0,0,0,22.7,7.685c15.693,3.723,32.261,5.025,49.8,6.4,16.241,1.276,33.035,2.6,50.147,5.962a197.581,197.581,0,0,1,25.875,6.839,167.3,167.3,0,0,1,26.116,11.414c7.563,4.105,14.762,8.348,21.4,12.609,7.133,4.583,13.849,9.338,19.962,14.135a201.169,201.169,0,0,1,17.924,15.8,158.016,158.016,0,0,1,15.281,17.617,196.516,196.516,0,0,1,17.975,29.528,247.541,247.541,0,0,1,13.2,32.473,346.592,346.592,0,0,1,9.435,35.078c2.472,11.365,4.656,23.582,6.678,37.349,2.878,19.592,3.319,38.206,3.747,56.207.385,16.227.749,31.554,2.885,46.113a133.383,133.383,0,0,0,4.748,21.175,97.816,97.816,0,0,0,8.729,19.855,95.22,95.22,0,0,0,7.185,10.585,115.134,115.134,0,0,0,8.593,9.778,166.852,166.852,0,0,0,20.667,17.625c6.768,4.963,14.635,10.151,24.049,15.861,8.414,5.1,17.31,10.171,25.914,15.073,2.167,1.235,4.409,2.512,6.615,3.773,11.124,6.362,21.548,13,30.983,19.738a270,270,0,0,1,28.729,23.492,197.2,197.2,0,0,1,24.32,27.532,160.119,160.119,0,0,1,9.831,15.37,143.819,143.819,0,0,1,7.917,16.486,135.462,135.462,0,0,1,9.42,43.052,160.18,160.18,0,0,1-3.809,44.219,176.293,176.293,0,0,1-15.245,41.9A167.612,167.612,0,0,1,1492.286,1195.094Z" transform="translate(-8.172 -31.797)"/>
        <path id="Trazado_98" data-name="Trazado 98" class="cls-11" d="M1488.713,1192.221l-.757-.654a186.51,186.51,0,0,0,24.989-37.322,189.128,189.128,0,0,0,15.707-42.824A165.688,165.688,0,0,0,1533,1066.4a137.609,137.609,0,0,0-9.073-43.908,149.728,149.728,0,0,0-17.465-32.1,191.918,191.918,0,0,0-24.242-27.765c-16.472-15.685-36.756-30.145-60.29-42.979-4.172-2.275-8.41-4.552-12.508-6.755-17-9.135-33.053-17.764-47.5-27.65a169.394,169.394,0,0,1-20.037-15.822A105.921,105.921,0,0,1,1325.948,851a100.467,100.467,0,0,1-10.6-20.64,137.069,137.069,0,0,1-6.254-22.353c-3.047-15.43-4.187-31.9-5.4-49.327-1.085-15.66-2.207-31.853-4.793-48.755-3.709-24.246-8.082-49.969-14.9-73.8a259.806,259.806,0,0,0-11.908-33.434c-2.39-5.431-4.982-10.71-7.706-15.691-2.829-5.174-5.9-10.2-9.117-14.947a156.168,156.168,0,0,0-14.985-18.678,195.155,195.155,0,0,0-17.879-16.811,274.5,274.5,0,0,0-41.929-28.319,166.123,166.123,0,0,0-24.828-11.26,197.1,197.1,0,0,0-24.677-7.042c-16.366-3.6-32.506-5.3-48.115-6.944-17.01-1.793-33.076-3.487-48.389-7.444a123.4,123.4,0,0,1-22.255-7.918,98.544,98.544,0,0,1-20.6-13.031,184.945,184.945,0,0,1-30.618-31.874,143.625,143.625,0,0,1-18.268-32.376,120.979,120.979,0,0,1-7.91-31,96.738,96.738,0,0,1,11.208-58.974,129.226,129.226,0,0,1,10.018-16.119A131.7,131.7,0,0,1,969.1,268.935a122.269,122.269,0,0,1,81.951-36.413c29.372-1.431,60.456-4.275,93.365-7.286,7.958-.728,16.186-1.481,24.313-2.2a158.317,158.317,0,0,0,36.526-7.7,153.023,153.023,0,0,0,33.146-15.757,130.5,130.5,0,0,0,27.156-22.77,104.744,104.744,0,0,0,18.572-28.733,154.532,154.532,0,0,0,8.622-27.9c2.141-9.676,3.7-19.457,5.354-29.813,2.933-18.385,5.967-37.4,12.506-55.924,10.806-30.62,28.227-57.74,50.38-78.429a183.567,183.567,0,0,1,41.189-29.023,186.15,186.15,0,0,1,48.3-16.926l.2.98a185.142,185.142,0,0,0-48.04,16.835,182.555,182.555,0,0,0-40.964,28.865c-22.036,20.58-39.367,47.563-50.12,78.031-6.509,18.443-9.535,37.408-12.461,55.749-1.655,10.371-3.218,20.167-5.365,29.872a155.5,155.5,0,0,1-8.679,28.074,105.741,105.741,0,0,1-18.747,29.008,131.5,131.5,0,0,1-27.364,22.946,154.033,154.033,0,0,1-33.362,15.861,159.324,159.324,0,0,1-36.757,7.749c-8.125.724-16.353,1.477-24.31,2.2-32.92,3.012-64.014,5.856-93.407,7.288a121.269,121.269,0,0,0-81.291,36.119,130.68,130.68,0,0,0-12.963,15.212,128.207,128.207,0,0,0-9.941,15.993,95.74,95.74,0,0,0-11.1,58.4,119.985,119.985,0,0,0,7.845,30.742,142.624,142.624,0,0,0,18.141,32.149,183.939,183.939,0,0,0,30.452,31.7,97.553,97.553,0,0,0,20.391,12.9,122.418,122.418,0,0,0,22.076,7.853c15.241,3.938,31.271,5.628,48.244,7.418,15.636,1.649,31.8,3.353,48.225,6.962a198.061,198.061,0,0,1,24.8,7.077,167.116,167.116,0,0,1,24.976,11.327,275.5,275.5,0,0,1,42.083,28.424,196.207,196.207,0,0,1,17.971,16.9,157.136,157.136,0,0,1,15.081,18.8c3.238,4.77,6.322,9.827,9.167,15.029,2.737,5.005,5.343,10.31,7.744,15.767a260.853,260.853,0,0,1,11.954,33.561c6.838,23.889,11.218,49.649,14.931,73.928,2.592,16.943,3.715,33.157,4.8,48.837,1.205,17.4,2.344,33.835,5.379,49.2a136.094,136.094,0,0,0,6.208,22.191,99.478,99.478,0,0,0,10.5,20.437,104.93,104.93,0,0,0,15.792,18.251,168.439,168.439,0,0,0,19.92,15.728c14.4,9.856,30.431,18.472,47.4,27.595,4.1,2.2,8.339,4.482,12.513,6.758,23.61,12.875,43.966,27.387,60.5,43.133a192.913,192.913,0,0,1,24.368,27.911,150.732,150.732,0,0,1,17.582,32.314,138.608,138.608,0,0,1,9.141,44.226,166.685,166.685,0,0,1-4.373,45.289,190.125,190.125,0,0,1-15.79,43.051A187.508,187.508,0,0,1,1488.713,1192.221Z" transform="translate(-7.602 -29.147)"/>
        <path id="Trazado_99" data-name="Trazado 99" class="cls-12" d="M1485.118,1189.35l-.772-.636a209.111,209.111,0,0,0,25.224-38.751,203.852,203.852,0,0,0,16.252-43.984,172.38,172.38,0,0,0,4.909-46.091,140.83,140.83,0,0,0-8.793-45.082c-8.182-21.688-22.174-42.109-41.588-60.7a240.825,240.825,0,0,0-29.156-23.685,292.659,292.659,0,0,0-31.9-19.182c-6.091-3.163-12.275-6.271-18.256-9.277-16.08-8.082-31.268-15.716-45.074-24.475a171.929,171.929,0,0,1-19.332-14.048A108.775,108.775,0,0,1,1320.723,847a102.765,102.765,0,0,1-12.736-21.518,141.265,141.265,0,0,1-7.944-23.815c-4.065-16.577-6.052-34.565-8.155-53.609-1.406-12.733-2.861-25.9-5.024-39.5-.485-3.05-.971-6.132-1.441-9.112-3.9-24.739-7.585-48.107-13.325-70.375a266.006,266.006,0,0,0-10.385-32.321,186.619,186.619,0,0,0-15.015-29.963,155.267,155.267,0,0,0-14.78-19.852,191.273,191.273,0,0,0-17.927-17.892,260.562,260.562,0,0,0-42.645-29.991,166.738,166.738,0,0,0-23.7-11.156,198.744,198.744,0,0,0-23.611-7.269c-15.676-3.834-31.189-5.921-46.191-7.939-16.439-2.211-31.966-4.3-46.822-8.478a127.821,127.821,0,0,1-21.62-8.093,101.779,101.779,0,0,1-20.074-12.806,186.242,186.242,0,0,1-29.811-30.624,145.375,145.375,0,0,1-18.355-31.319c-8.145-19.246-11.179-39.278-8.774-57.93a98.166,98.166,0,0,1,9.852-30.751,124.033,124.033,0,0,1,9.44-15.762,128.335,128.335,0,0,1,12.368-15.01,123.11,123.11,0,0,1,33.281-24.71,121.349,121.349,0,0,1,44.256-12.524c18.915-1.674,38.5-3.873,59.235-6.2,18.529-2.08,37.689-4.231,56.873-6.044a162.423,162.423,0,0,0,35.3-7.376,155.072,155.072,0,0,0,32.2-14.748c20.729-12.6,36.495-29.273,45.591-48.2a154.428,154.428,0,0,0,10.153-28.859c2.6-10.066,4.564-20.3,6.649-31.128,3.24-16.833,6.589-34.24,12.517-51.3a239.111,239.111,0,0,1,20.527-44.264,199.809,199.809,0,0,1,27.792-36.49A185.7,185.7,0,0,1,1437.64-101.2l.239.971a184.7,184.7,0,0,0-88.748,50.99,198.805,198.805,0,0,0-27.652,36.307,238.127,238.127,0,0,0-20.44,44.079c-5.9,16.988-9.246,34.358-12.479,51.156-2.088,10.847-4.059,21.093-6.662,31.189-1.4,5.429-2.849,10.29-4.43,14.861a132.31,132.31,0,0,1-5.79,14.181c-9.181,19.106-25.078,35.921-45.973,48.626a156.072,156.072,0,0,1-32.4,14.844,163.429,163.429,0,0,1-35.513,7.422c-19.175,1.813-38.33,3.963-56.855,6.042-20.741,2.328-40.332,4.527-59.259,6.2A120.354,120.354,0,0,0,997.78,238.1a122.1,122.1,0,0,0-33.01,24.51A127.331,127.331,0,0,0,952.5,277.5a123.018,123.018,0,0,0-9.364,15.635,97.16,97.16,0,0,0-9.755,30.432c-2.383,18.476.626,38.329,8.7,57.412a144.376,144.376,0,0,0,18.229,31.1,185.237,185.237,0,0,0,29.65,30.456,100.772,100.772,0,0,0,19.877,12.68,126.828,126.828,0,0,0,21.452,8.03c14.788,4.159,30.282,6.243,46.685,8.45,15.028,2.022,30.567,4.112,46.3,7.959A199.727,199.727,0,0,1,1148,486.961a167.717,167.717,0,0,1,23.841,11.222,261.567,261.567,0,0,1,42.809,30.107,192.272,192.272,0,0,1,18.021,17.986,156.243,156.243,0,0,1,14.875,19.981,187.607,187.607,0,0,1,15.1,30.122,267.04,267.04,0,0,1,10.424,32.442c5.752,22.315,9.44,45.705,13.344,70.469.47,2.98.956,6.061,1.441,9.11,2.167,13.623,3.622,26.8,5.03,39.546,2.1,19.011,4.084,36.968,8.132,53.481a140.29,140.29,0,0,0,7.887,23.648,101.779,101.779,0,0,0,12.614,21.311,107.777,107.777,0,0,0,15.763,16.293,170.921,170.921,0,0,0,19.221,13.966c13.763,8.733,28.93,16.356,44.987,24.426,5.984,3.007,12.171,6.117,18.268,9.283a293.674,293.674,0,0,1,32.013,19.248,241.818,241.818,0,0,1,29.277,23.784c19.522,18.691,33.6,39.236,41.832,61.065a141.824,141.824,0,0,1,8.857,45.4,173.368,173.368,0,0,1-4.936,46.359,204.859,204.859,0,0,1-16.332,44.2A210.112,210.112,0,0,1,1485.118,1189.35Z" transform="translate(-7.011 -26.497)"/>
        <path id="Trazado_100" data-name="Trazado 100" class="cls-13" d="M1481.5,1186.479l-.786-.618a234.963,234.963,0,0,0,25.458-40.179,219.5,219.5,0,0,0,16.8-45.143,179.217,179.217,0,0,0,5.469-47.166,144.1,144.1,0,0,0-8.508-46.259,149.372,149.372,0,0,0-17.142-33.01,184.545,184.545,0,0,0-24.327-28.521,229.217,229.217,0,0,0-29.419-23.826,266.364,266.364,0,0,0-32.409-18.925c-7.944-3.926-16.012-7.682-23.815-11.314-30.076-14-58.484-27.227-77.34-48.523a105.742,105.742,0,0,1-15.352-22.805,147.3,147.3,0,0,1-9.931-25.913c-5.233-18.209-8.143-38.313-11.223-59.6-1.289-8.908-2.622-18.119-4.169-27.49-1.549-9.387-2.953-18.776-4.311-27.856-6.375-42.639-12.4-82.912-32.385-117.812-8.043-14.042-18.994-27.5-32.547-39.993a251.157,251.157,0,0,0-43.364-31.669,167.93,167.93,0,0,0-22.565-11.025,201.418,201.418,0,0,0-22.536-7.476c-14.981-4.059-29.859-6.523-44.246-8.906-31.306-5.185-60.876-10.082-85.827-30.439a186.628,186.628,0,0,1-29.033-29.332,146.728,146.728,0,0,1-18.436-30.266c-8.478-18.905-11.958-38.669-10.063-57.154a93.9,93.9,0,0,1,8.955-30.289,119.252,119.252,0,0,1,8.864-15.424,125.2,125.2,0,0,1,11.674-14.707,122.189,122.189,0,0,1,31.444-24.536,119.523,119.523,0,0,1,41.666-13.468c11.513-1.51,23.184-3.165,35.541-4.917,25.594-3.629,52.06-7.381,79-10.082a168.017,168.017,0,0,0,34.074-7.047,158.033,158.033,0,0,0,31.261-13.737,132.359,132.359,0,0,0,26.282-19.77,104.888,104.888,0,0,0,19.15-25.143,130.9,130.9,0,0,0,6.714-14.64c1.852-4.747,3.565-9.816,5.236-15.494,3.115-10.582,5.538-21.4,8.1-32.855,3.372-15.055,6.859-30.622,12.1-45.941a282.216,282.216,0,0,1,19.777-45.068,214.6,214.6,0,0,1,26.483-38.011,189.825,189.825,0,0,1,40.125-34.474,186.524,186.524,0,0,1,48.839-22.106l.277.961A185.522,185.522,0,0,0,1376.477-89.5a188.834,188.834,0,0,0-39.913,34.293,213.6,213.6,0,0,0-26.358,37.834A281.2,281.2,0,0,0,1290.5,27.534c-5.223,15.267-8.7,30.808-12.071,45.836-2.57,11.471-5,22.306-8.121,32.919-1.68,5.707-3.4,10.8-5.264,15.576a131.882,131.882,0,0,1-6.765,14.75A105.885,105.885,0,0,1,1238.948,162a133.363,133.363,0,0,1-26.48,19.921,159.034,159.034,0,0,1-31.459,13.824,169.011,169.011,0,0,1-34.277,7.089c-26.917,2.7-53.373,6.45-78.957,10.077-12.359,1.752-24.033,3.408-35.551,4.919A118.526,118.526,0,0,0,990.9,231.184a121.194,121.194,0,0,0-31.187,24.336,124.2,124.2,0,0,0-11.581,14.589,118.245,118.245,0,0,0-8.789,15.294,92.894,92.894,0,0,0-8.862,29.96c-1.877,18.311,1.574,37.9,9.98,56.643a145.725,145.725,0,0,0,18.311,30.059,185.632,185.632,0,0,0,28.878,29.173,104.381,104.381,0,0,0,19.358,12.5,131.812,131.812,0,0,0,20.834,8.229c14.343,4.391,29.315,6.87,45.167,9.5,14.412,2.387,29.315,4.855,44.344,8.927A202.444,202.444,0,0,1,1140,477.906,168.913,168.913,0,0,1,1162.7,489a252.154,252.154,0,0,1,43.537,31.8c13.629,12.565,24.643,26.1,32.737,40.232,20.083,35.063,26.117,75.427,32.506,118.161,1.357,9.076,2.76,18.461,4.308,27.841s2.882,18.6,4.172,27.51c3.075,21.25,5.98,41.322,11.194,59.465a146.326,146.326,0,0,0,9.863,25.739,104.769,104.769,0,0,0,15.208,22.593c18.718,21.141,47.034,34.323,77.013,48.279,7.808,3.635,15.881,7.393,23.836,11.324a267.416,267.416,0,0,1,32.531,19,230.228,230.228,0,0,1,29.547,23.931,185.54,185.54,0,0,1,24.459,28.676,150.374,150.374,0,0,1,17.256,33.231,145.1,145.1,0,0,1,8.569,46.579,180.215,180.215,0,0,1-5.5,47.429,220.506,220.506,0,0,1-16.872,45.349A235.953,235.953,0,0,1,1481.5,1186.479Z" transform="translate(-6.398 -23.847)"/>
        <path id="Trazado_101" data-name="Trazado 101" class="cls-14" d="M1477.862,1183.609l-.8-.6a264.617,264.617,0,0,0,25.689-41.606,236.142,236.142,0,0,0,17.336-46.3,186.228,186.228,0,0,0,6.029-48.24,147.447,147.447,0,0,0-8.218-47.437,149.433,149.433,0,0,0-16.984-33.466,181.387,181.387,0,0,0-24.367-28.9,218.9,218.9,0,0,0-29.68-23.969,244.842,244.842,0,0,0-32.914-18.663c-9.714-4.561-19.589-8.773-29.138-12.846-28.517-12.165-55.453-23.655-74.6-42.585a106.735,106.735,0,0,1-10.268-11.773,116.437,116.437,0,0,1-8.4-12.931,155.813,155.813,0,0,1-12.319-28.99c-6.591-20.589-10.478-43.7-14.593-68.171-.62-3.689-1.262-7.5-1.912-11.306-2.373-13.874-4.2-27.708-5.964-41.088-5.138-38.933-9.991-75.707-27.26-108.475-7.815-14.829-18.712-29.039-32.388-42.235a245.153,245.153,0,0,0-44.085-33.356,170.72,170.72,0,0,0-21.451-10.889,206.276,206.276,0,0,0-21.475-7.685c-14.292-4.287-28.537-7.135-42.313-9.889-30.217-6.042-58.757-11.748-83.09-31.485a188.869,188.869,0,0,1-28.222-28.081,148.928,148.928,0,0,1-18.517-29.209,122.059,122.059,0,0,1-9.679-28.973,102.359,102.359,0,0,1-1.708-27.371,79.879,79.879,0,0,1,2.576-14.664,100.118,100.118,0,0,1,5.488-15.184,114.909,114.909,0,0,1,8.288-15.1,122.426,122.426,0,0,1,40.585-38.789A117.883,117.883,0,0,1,1022.579,209c4.757-.843,9.687-1.727,14.454-2.581,31.7-5.682,64.479-11.557,98.518-15.174a169.918,169.918,0,0,0,63.2-19.43,134,134,0,0,0,25.85-18.272,105.271,105.271,0,0,0,19.4-23.364,130.157,130.157,0,0,0,7.871-15.359c2.182-5.007,4.211-10.375,6.2-16.41,3.711-11.247,6.642-22.822,9.745-35.076,3.294-13.007,6.7-26.457,11.17-39.731a341.808,341.808,0,0,1,19.019-45.875c3.7-7.267,7.657-14.226,11.754-20.682a210.709,210.709,0,0,1,13.428-18.847,189.9,189.9,0,0,1,88.7-61.895l.313.95a188.9,188.9,0,0,0-88.234,61.571,209.728,209.728,0,0,0-13.364,18.757c-4.081,6.43-8.019,13.361-11.708,20.6a340.839,340.839,0,0,0-18.963,45.74c-4.458,13.238-7.859,26.669-11.148,39.658-3.108,12.272-6.043,23.863-9.765,35.144-2,6.064-4.041,11.46-6.235,16.5a131.072,131.072,0,0,1-7.931,15.476,106.268,106.268,0,0,1-19.586,23.587,135.007,135.007,0,0,1-26.042,18.41,170.926,170.926,0,0,1-63.575,19.547c-34,3.613-66.765,9.486-98.447,15.164-4.768.854-9.7,1.738-14.456,2.581a116.887,116.887,0,0,0-38.742,14.226,121.425,121.425,0,0,0-40.251,38.47,113.91,113.91,0,0,0-8.216,14.972,99.133,99.133,0,0,0-5.433,15.032,78.88,78.88,0,0,0-2.544,14.479,101.363,101.363,0,0,0,1.692,27.1A121.069,121.069,0,0,0,938.86,363a147.944,147.944,0,0,0,18.393,29.012,187.873,187.873,0,0,0,28.073,27.931c24.141,19.582,52.564,25.265,82.655,31.281,13.8,2.759,28.068,5.612,42.4,9.912a207.252,207.252,0,0,1,21.578,7.722,171.7,171.7,0,0,1,21.576,10.953A246.164,246.164,0,0,1,1197.8,513.3c13.752,13.271,24.713,27.566,32.578,42.488,17.353,32.926,22.217,69.786,27.367,108.81,1.764,13.37,3.589,27.2,5.959,41.05.651,3.8,1.292,7.619,1.913,11.309,4.109,24.433,7.99,47.511,14.559,68.032a154.814,154.814,0,0,0,12.239,28.806,115.384,115.384,0,0,0,8.328,12.82,105.709,105.709,0,0,0,10.172,11.663c19.013,18.8,45.864,30.25,74.291,42.376,9.557,4.077,19.44,8.292,29.17,12.861a245.856,245.856,0,0,1,33.049,18.74,219.878,219.878,0,0,1,29.816,24.08,182.387,182.387,0,0,1,24.5,29.064,150.444,150.444,0,0,1,17.1,33.691,148.44,148.44,0,0,1,8.275,47.758,187.23,187.23,0,0,1-6.06,48.5,237.141,237.141,0,0,1-17.409,46.5A265.61,265.61,0,0,1,1477.862,1183.609Z" transform="translate(-5.765 -21.198)"/>
        <path id="Trazado_102" data-name="Trazado 102" class="cls-15" d="M1474.2,1180.737l-.811-.585a298.889,298.889,0,0,0,25.919-43.032,253.83,253.83,0,0,0,17.874-47.457,193.4,193.4,0,0,0,6.589-49.314,158.677,158.677,0,0,0-1.946-24.553,145.026,145.026,0,0,0-5.977-24.062,149.658,149.658,0,0,0-16.829-33.924,178.5,178.5,0,0,0-24.406-29.289,209.655,209.655,0,0,0-29.94-24.113,226.919,226.919,0,0,0-33.421-18.4c-11.387-5.073-22.983-9.551-34.2-13.881-27.133-10.477-52.76-20.372-72.125-37.146a110.52,110.52,0,0,1-11.9-12.037,120.123,120.123,0,0,1-9.881-13.507,158.826,158.826,0,0,1-14.822-30.921,296.475,296.475,0,0,1-10.1-35.316c-2.945-12.914-5.4-26.258-7.61-38.754-3.049-17.228-4.931-34.43-6.751-51.066-2.019-18.459-3.926-35.894-7.279-53.041a238.465,238.465,0,0,0-6.263-25.22,170.917,170.917,0,0,0-9.459-24.13c-7.569-15.6-18.413-30.56-32.229-44.467a241.818,241.818,0,0,0-44.806-35.052,175.063,175.063,0,0,0-20.349-10.743,213.433,213.433,0,0,0-20.42-7.885c-13.606-4.51-27.219-7.742-40.384-10.867-29.116-6.913-56.617-13.442-80.331-32.556a191.858,191.858,0,0,1-27.408-26.831,151.464,151.464,0,0,1-18.595-28.151,122.414,122.414,0,0,1-10.273-28.29,101.494,101.494,0,0,1-2.443-27.242A77.808,77.808,0,0,1,925.8,284.4a96.3,96.3,0,0,1,5.007-14.92,111.025,111.025,0,0,1,7.711-14.8,120.926,120.926,0,0,1,38.044-38.359,116.473,116.473,0,0,1,36.483-15.162c35.183-7.995,72.766-16.164,111.406-20.513a178.246,178.246,0,0,0,61.088-18.062,136.245,136.245,0,0,0,25.42-16.774,105.857,105.857,0,0,0,19.632-21.6,128.844,128.844,0,0,0,9.267-16.257,187.778,187.778,0,0,0,7.333-17.574c4.4-12.1,7.892-24.63,11.591-37.9,2.964-10.633,6.029-21.628,9.628-32.492A424.05,424.05,0,0,1,1286.665-26.7c3.536-7.551,7.272-14.739,11.1-21.363a220.551,220.551,0,0,1,12.785-19.683,195.645,195.645,0,0,1,39.03-39.94,189.7,189.7,0,0,1,49.408-27.27l.347.938a188.692,188.692,0,0,0-49.148,27.126,194.634,194.634,0,0,0-38.83,39.736,219.511,219.511,0,0,0-12.727,19.593c-3.818,6.6-7.541,13.761-11.065,21.286A423.092,423.092,0,0,0,1269.359,20.3c-3.592,10.842-6.653,21.825-9.614,32.446-3.7,13.29-7.2,25.843-11.615,37.974a188.743,188.743,0,0,1-7.372,17.667,129.887,129.887,0,0,1-9.339,16.382,106.857,106.857,0,0,1-19.817,21.8A137.238,137.238,0,0,1,1186,163.47a179.253,179.253,0,0,1-61.434,18.167c-38.589,4.344-76.141,12.506-111.3,20.495a115.468,115.468,0,0,0-36.171,15.032,119.922,119.922,0,0,0-37.728,38.04,110.044,110.044,0,0,0-7.641,14.669,95.316,95.316,0,0,0-4.955,14.765,76.808,76.808,0,0,0-2.141,14.32,100.5,100.5,0,0,0,2.42,26.974,121.412,121.412,0,0,0,10.19,28.058,150.471,150.471,0,0,0,18.473,27.964,190.861,190.861,0,0,0,27.265,26.69c23.537,18.972,50.931,25.476,79.934,32.362,13.185,3.13,26.819,6.367,40.467,10.891a214.434,214.434,0,0,1,20.515,7.922,176.077,176.077,0,0,1,20.464,10.8,242.817,242.817,0,0,1,44.991,35.2c13.894,13.985,24.8,29.036,32.419,44.734a171.928,171.928,0,0,1,9.514,24.269,239.394,239.394,0,0,1,6.29,25.325c3.361,17.189,5.27,34.644,7.292,53.124,1.818,16.62,3.7,33.805,6.741,51,2.209,12.484,4.659,25.813,7.6,38.706a295.54,295.54,0,0,0,10.064,35.2A157.831,157.831,0,0,0,1284,808.906a119.114,119.114,0,0,0,9.8,13.394,109.511,109.511,0,0,0,11.791,11.928c19.233,16.659,44.782,26.525,71.831,36.969,11.226,4.335,22.834,8.817,34.244,13.9a227.885,227.885,0,0,1,33.569,18.478,210.66,210.66,0,0,1,30.083,24.229,179.523,179.523,0,0,1,24.543,29.454,150.64,150.64,0,0,1,16.94,34.151,146.025,146.025,0,0,1,6.019,24.228,159.693,159.693,0,0,1,1.959,24.708,194.406,194.406,0,0,1-6.621,49.57,254.859,254.859,0,0,1-17.944,47.645A299.9,299.9,0,0,1,1474.2,1180.737Z" transform="translate(-5.11 -18.548)"/>
        <path id="Trazado_103" data-name="Trazado 103" class="cls-16" d="M1470.521,1177.867l-.822-.57a338.825,338.825,0,0,0,26.147-44.458,272.72,272.72,0,0,0,18.41-48.613,200.754,200.754,0,0,0,7.147-50.387,162.5,162.5,0,0,0-1.746-25.118,148.22,148.22,0,0,0-5.877-24.677A150,150,0,0,0,1497.1,949.66a175.914,175.914,0,0,0-24.445-29.677,207.932,207.932,0,0,0-64.125-42.383c-12.943-5.463-26.162-10.018-38.945-14.423-25.933-8.937-50.428-17.378-69.96-32.2-17.2-13.053-30.53-30.878-40.759-54.493a251.158,251.158,0,0,1-11.9-34.893c-3.007-11.194-5.778-23.79-8.47-38.509-3.629-19.843-5.3-39.736-6.923-58.974-1.482-17.607-2.882-34.237-5.654-50.707a232.728,232.728,0,0,0-5.334-24.289,167.183,167.183,0,0,0-8.368-23.382c-7.309-16.352-18.1-32.06-32.072-46.686a240.754,240.754,0,0,0-45.525-36.762c-25.545-16.151-51.752-23.449-77.1-30.506-14.148-3.939-27.51-7.66-40.525-12.789a161.206,161.206,0,0,1-19.059-8.885,125.658,125.658,0,0,1-17.958-11.974,195.8,195.8,0,0,1-26.591-25.581,154.333,154.333,0,0,1-18.67-27.094,122.731,122.731,0,0,1-10.868-27.606,100.5,100.5,0,0,1-3.182-27.113,76.324,76.324,0,0,1,1.762-14.357,93.15,93.15,0,0,1,4.523-14.672,107.589,107.589,0,0,1,7.128-14.52,117.084,117.084,0,0,1,9.58-13.9,120.076,120.076,0,0,1,25.912-24.054,115.379,115.379,0,0,1,33.908-15.91c19.549-5.512,36.955-9.93,53.212-13.506,20.141-4.43,38.664-7.624,56.628-9.766a201.763,201.763,0,0,0,30.462-6.014,175.693,175.693,0,0,0,28.536-10.661,139.122,139.122,0,0,0,24.992-15.275,106.626,106.626,0,0,0,19.84-19.854,127.05,127.05,0,0,0,10.954-17.346,185.913,185.913,0,0,0,8.653-19.028c5.184-13.161,9.289-26.9,13.635-41.439,2.353-7.874,4.786-16.015,7.407-24.057,6.239-19.145,11.794-34.236,17.485-47.493a261.664,261.664,0,0,1,22.606-42.56,198.436,198.436,0,0,1,38.47-42.676,192.158,192.158,0,0,1,49.7-29.847l.379.925A191.161,191.161,0,0,0,1337-115.588a197.443,197.443,0,0,0-38.276,42.461,260.7,260.7,0,0,0-22.518,42.4c-5.678,13.229-11.224,28.293-17.453,47.409-2.617,8.03-5.048,16.166-7.4,24.034-4.352,14.563-8.463,28.318-13.663,41.519a186.9,186.9,0,0,1-8.7,19.13,128.012,128.012,0,0,1-11.041,17.481,107.63,107.63,0,0,1-20.025,20.042,140.144,140.144,0,0,1-25.172,15.386,176.689,176.689,0,0,1-28.7,10.722,202.733,202.733,0,0,1-30.613,6.045c-17.931,2.138-36.422,5.327-56.531,9.75-16.238,3.572-33.626,7.985-53.156,13.492a114.379,114.379,0,0,0-33.614,15.773,119.067,119.067,0,0,0-25.7,23.854,116.079,116.079,0,0,0-9.5,13.78,106.611,106.611,0,0,0-7.062,14.385,92.157,92.157,0,0,0-4.475,14.514,75.341,75.341,0,0,0-1.74,14.168,99.492,99.492,0,0,0,3.152,26.843,121.721,121.721,0,0,0,10.78,27.38A153.324,153.324,0,0,0,954.154,371.9a194.785,194.785,0,0,0,26.455,25.449,124.667,124.667,0,0,0,17.816,11.879,160.193,160.193,0,0,0,18.942,8.83c12.966,5.109,26.3,8.824,40.426,12.756,25.414,7.077,51.693,14.394,77.363,30.624a241.758,241.758,0,0,1,45.714,36.917c14.052,14.709,24.906,30.511,32.262,46.968a168.127,168.127,0,0,1,8.418,23.52,233.675,233.675,0,0,1,5.357,24.393c2.78,16.511,4.181,33.161,5.665,50.789,1.617,19.214,3.29,39.083,6.91,58.878,2.687,14.692,5.452,27.262,8.451,38.43a250.219,250.219,0,0,0,11.853,34.755c10.159,23.453,23.389,41.147,40.446,54.094,19.4,14.727,43.825,23.142,69.681,32.052,12.8,4.411,26.035,8.972,39.009,14.448a208.944,208.944,0,0,1,64.436,42.59,176.915,176.915,0,0,1,24.583,29.847,151,151,0,0,1,16.786,34.613,149.213,149.213,0,0,1,5.917,24.844,163.5,163.5,0,0,1,1.757,25.273,201.752,201.752,0,0,1-7.182,50.639,273.706,273.706,0,0,1-18.476,48.792A339.849,339.849,0,0,1,1470.521,1177.867Z" transform="translate(-4.435 -15.898)"/>
        <path id="Trazado_104" data-name="Trazado 104" class="cls-16" d="M1466.819,1175l-.832-.555a385.7,385.7,0,0,0,26.373-45.884,292.773,292.773,0,0,0,18.942-49.768c10.173-37.157,10.3-71.622.385-102.438a150.477,150.477,0,0,0-16.525-34.844,173.552,173.552,0,0,0-24.481-30.069,197.523,197.523,0,0,0-64.889-42.252c-14.375-5.738-29.115-10.2-43.371-14.508-12.573-3.8-24.449-7.394-35.926-11.753-6.169-2.343-11.635-4.687-16.708-7.165a133.928,133.928,0,0,1-15.482-8.8,118.894,118.894,0,0,1-13.758-10.68,125.806,125.806,0,0,1-11.982-12.42,141.286,141.286,0,0,1-10.341-14,166.021,166.021,0,0,1-8.836-15.42c-9.988-19.754-17.523-43.546-23.033-72.733-4.144-21.949-5.421-44.078-6.655-65.479-.983-17.034-1.911-33.124-4.166-49.153a228.2,228.2,0,0,0-4.522-23.692,163.988,163.988,0,0,0-7.463-22.922c-7.036-17.089-17.775-33.538-31.92-48.892a241.748,241.748,0,0,0-46.24-38.486c-24.1-15.651-49-23.71-73.09-31.5-13.552-4.385-26.353-8.527-38.889-13.9a177.723,177.723,0,0,1-18.4-9.093A137.3,137.3,0,0,1,977.6,386.829,200.912,200.912,0,0,1,951.827,362.5a157.529,157.529,0,0,1-18.742-26.037,122.985,122.985,0,0,1-11.463-26.923,99.376,99.376,0,0,1-3.929-26.984,75.491,75.491,0,0,1,1.358-14.212,90.662,90.662,0,0,1,4.035-14.439,104.656,104.656,0,0,1,6.538-14.255,114.875,114.875,0,0,1,8.87-13.663,119.6,119.6,0,0,1,24.057-23.906,114.731,114.731,0,0,1,31.357-16.6c17.824-6.106,35.442-11.321,52.364-15.5a491.232,491.232,0,0,1,55.912-10.534,224.829,224.829,0,0,0,29.274-5.651,186.434,186.434,0,0,0,27.651-9.615,142.814,142.814,0,0,0,24.567-13.777,107.563,107.563,0,0,0,20.029-18.132,124.621,124.621,0,0,0,12.99-18.644A183.46,183.46,0,0,0,1226.876,72.8c6.071-14.49,10.812-29.7,15.83-45.811,1.452-4.661,2.954-9.481,4.477-14.233,5.046-15.75,10.493-32.453,16.707-48.3,6.752-17.223,13.729-31.64,21.329-44.075a201.247,201.247,0,0,1,37.9-45.412,195.15,195.15,0,0,1,50.007-32.424l.409.913a194.148,194.148,0,0,0-49.751,32.258A200.246,200.246,0,0,0,1286.073-79.1c-7.569,12.385-14.521,26.751-21.251,43.919-6.2,15.824-11.645,32.51-16.686,48.244-1.521,4.748-3.022,9.566-4.474,14.225-5.026,16.13-9.773,31.366-15.863,45.9a184.447,184.447,0,0,1-10.237,20.941,125.6,125.6,0,0,1-13.094,18.792,108.561,108.561,0,0,1-20.215,18.3,143.814,143.814,0,0,1-24.74,13.874,187.428,187.428,0,0,1-27.8,9.667,225.824,225.824,0,0,1-29.4,5.677,490.175,490.175,0,0,0-55.8,10.513c-16.894,4.172-34.484,9.378-52.28,15.475a113.728,113.728,0,0,0-31.083,16.453,118.593,118.593,0,0,0-23.856,23.706,113.852,113.852,0,0,0-8.792,13.543,103.666,103.666,0,0,0-6.475,14.118,89.684,89.684,0,0,0-3.99,14.278,74.5,74.5,0,0,0-1.34,14.023,98.388,98.388,0,0,0,3.89,26.712,121.973,121.973,0,0,0,11.371,26.7,156.524,156.524,0,0,0,18.623,25.87,199.894,199.894,0,0,0,25.643,24.21,136.3,136.3,0,0,0,17.291,11.671,176.778,176.778,0,0,0,18.293,9.042c12.493,5.359,25.273,9.494,38.8,13.872,24.149,7.814,49.12,15.894,73.327,31.617a242.743,242.743,0,0,1,46.431,38.647c14.225,15.441,25.028,31.99,32.109,49.189a165,165,0,0,1,7.508,23.06,229.292,229.292,0,0,1,4.542,23.8c2.26,16.07,3.19,32.179,4.174,49.234,1.233,21.369,2.508,43.466,6.639,65.351,5.493,29.094,13,52.8,22.943,72.468a164.94,164.94,0,0,0,8.782,15.327,140.3,140.3,0,0,0,10.268,13.9,124.767,124.767,0,0,0,11.886,12.321,117.891,117.891,0,0,0,13.642,10.59,132.908,132.908,0,0,0,15.368,8.734c5.046,2.464,10.484,4.8,16.625,7.128,11.444,4.347,23.3,7.934,35.86,11.731,14.276,4.318,29.037,8.782,43.452,14.536a198.53,198.53,0,0,1,65.22,42.469,174.537,174.537,0,0,1,24.622,30.242,151.471,151.471,0,0,1,16.634,35.076c9.978,31,9.853,65.66-.372,103.008a293.775,293.775,0,0,1-19.006,49.94A386.712,386.712,0,0,1,1466.819,1175Z" transform="translate(-3.74 -13.249)"/>
        <path id="Trazado_105" data-name="Trazado 105" class="cls-17" d="M1463.1,1172.128l-.842-.54c21.872-34.056,37.373-67.106,46.071-98.232a237.431,237.431,0,0,0,5.788-26.191,198.153,198.153,0,0,0,2.476-26.344,170.334,170.334,0,0,0-1.343-26.249,154.723,154.723,0,0,0-5.67-25.909,151.059,151.059,0,0,0-16.376-35.306,171.394,171.394,0,0,0-24.518-30.464,188.3,188.3,0,0,0-65.651-42.118c-15.693-5.914-31.861-10.127-47.5-14.2-12.113-3.157-23.554-6.138-34.745-9.837-6.018-1.99-11.38-4-16.392-6.134a141.989,141.989,0,0,1-15.433-7.653,124.326,124.326,0,0,1-14.675-10.027,130.279,130.279,0,0,1-13.026-11.888,151.326,151.326,0,0,1-21.358-28.663c-11.663-20.063-20.313-44.3-25.712-72.033-4.611-23.688-5.351-47.734-6.067-70.988-.49-15.924-1-32.391-2.779-48.147a224.7,224.7,0,0,0-3.8-23.333,161.448,161.448,0,0,0-6.688-22.67c-6.752-17.807-17.443-34.993-31.775-51.082a244.689,244.689,0,0,0-46.95-40.226c-22.715-15.173-46.365-24.018-69.237-32.57-12.92-4.832-25.124-9.4-37.153-15.014-6.47-3.022-12.259-6.058-17.7-9.281A154.7,154.7,0,0,1,975.2,375.535a209.564,209.564,0,0,1-24.926-23.116,161.849,161.849,0,0,1-18.813-24.977,123.15,123.15,0,0,1-12.071-26.222,97.909,97.909,0,0,1-4.689-26.842,81.345,81.345,0,0,1,4.491-28.291,106.987,106.987,0,0,1,14.084-27.449,119.248,119.248,0,0,1,22.2-23.764,114.684,114.684,0,0,1,28.842-17.225,446.337,446.337,0,0,1,51.491-17.54,422.108,422.108,0,0,1,55.224-11.256c20.387-2.725,38.848-7.379,54.868-13.832,18.273-7.361,33.194-17.021,44.348-28.712a121.623,121.623,0,0,0,15.437-20.172A180.623,180.623,0,0,0,1217.6,63.083c7.048-16.138,12.646-33.932,18.059-51.14l.881-2.8c1.012-3.213,2.029-6.469,3.014-9.618,4.789-15.325,9.313-29.8,14.574-44.087,2.83-7.683,5.6-14.556,8.459-21.01,3.208-7.232,6.458-13.771,9.937-19.99a204.066,204.066,0,0,1,37.329-48.148,198.636,198.636,0,0,1,50.318-35l.437.9a197.64,197.64,0,0,0-50.064,34.826A203.061,203.061,0,0,0,1273.4-85.072c-3.464,6.192-6.7,12.7-9.9,19.907-2.854,6.434-5.613,13.287-8.435,20.95-5.253,14.264-9.773,28.727-14.558,44.04-.984,3.15-2,6.407-3.014,9.62l-.88,2.8c-5.422,17.233-11.028,35.053-18.1,51.24a181.632,181.632,0,0,1-11.993,23.179A122.6,122.6,0,0,1,1190.963,107c-11.253,11.8-26.292,21.535-44.7,28.95-16.1,6.484-34.639,11.159-55.109,13.9a421.137,421.137,0,0,0-55.092,11.229,445.355,445.355,0,0,0-51.375,17.5,113.691,113.691,0,0,0-28.59,17.076,118.252,118.252,0,0,0-22.009,23.564,105.983,105.983,0,0,0-13.953,27.191,80.353,80.353,0,0,0-4.439,27.943,96.918,96.918,0,0,0,4.643,26.568,122.148,122.148,0,0,0,11.974,26.008,160.845,160.845,0,0,0,18.7,24.822,208.54,208.54,0,0,0,24.8,23,153.711,153.711,0,0,0,16.748,11.418c5.411,3.206,11.171,6.227,17.611,9.235,11.994,5.6,24.18,10.159,37.081,14.984,22.925,8.573,46.63,17.438,69.442,32.676a245.69,245.69,0,0,1,47.141,40.393c14.414,16.181,25.168,33.471,31.963,51.393a162.419,162.419,0,0,1,6.73,22.809,225.666,225.666,0,0,1,3.814,23.436c1.787,15.8,2.295,32.284,2.785,48.229.714,23.214,1.453,47.219,6.049,70.828,5.377,27.625,13.989,51.755,25.595,71.721a150.33,150.33,0,0,0,21.215,28.474,129.269,129.269,0,0,0,12.926,11.8,123.293,123.293,0,0,0,14.555,9.945,141.032,141.032,0,0,0,15.324,7.6c4.986,2.127,10.322,4.124,16.314,6.1,11.16,3.689,22.586,6.667,34.684,9.819,15.661,4.081,31.856,8.3,47.6,14.233a189.31,189.31,0,0,1,66,42.343,172.394,172.394,0,0,1,24.661,30.642,152.056,152.056,0,0,1,16.484,35.54,155.741,155.741,0,0,1,5.707,26.077,171.34,171.34,0,0,1,1.351,26.4,199.131,199.131,0,0,1-2.489,26.477,238.444,238.444,0,0,1-5.812,26.3C1500.567,1104.847,1485.026,1137.988,1463.1,1172.128Z" transform="translate(-3.028 -10.599)"/>
        <path id="Trazado_106" data-name="Trazado 106" class="cls-18" d="M1459.365,1169.259l-.85-.526a508.658,508.658,0,0,0,26.82-48.734c4.14-8.7,7.883-17.354,11.126-25.734,3.449-8.911,6.435-17.775,8.875-26.343a247.541,247.541,0,0,0,6.08-26.726,204.169,204.169,0,0,0,2.742-26.882,174.346,174.346,0,0,0-1.139-26.815,158.07,158.07,0,0,0-5.562-26.526,151.749,151.749,0,0,0-16.23-35.769,169.444,169.444,0,0,0-24.554-30.861,180.083,180.083,0,0,0-66.411-41.978c-16.86-5.986-34.339-9.8-51.243-13.485-11.751-2.563-22.851-4.984-33.827-8.087-5.905-1.669-11.192-3.374-16.162-5.21a149.118,149.118,0,0,1-15.418-6.647,131.295,131.295,0,0,1-29.687-20.691,150.878,150.878,0,0,1-23.536-27.91,183.817,183.817,0,0,1-17.321-33.6,221.673,221.673,0,0,1-11.046-37.766,262.585,262.585,0,0,1-4.476-37.9c-.667-12.65-.718-25.469-.767-37.865-.062-15.7-.126-31.936-1.469-47.541a222.055,222.055,0,0,0-3.134-23.15,159.382,159.382,0,0,0-6.009-22.574c-6.459-18.505-17.1-36.422-31.639-53.254-13-15.05-29.029-29.177-47.652-41.987-21.353-14.688-43.764-24.306-65.437-33.607-11.746-5.041-23.892-10.254-35.408-16.118-6.2-3.155-11.75-6.256-16.983-9.48a179.35,179.35,0,0,1-16.27-11.254,218.367,218.367,0,0,1-24.1-21.866A165.736,165.736,0,0,1,929.8,318.451c-11.049-17.2-17.141-34.777-18.108-52.25a81.182,81.182,0,0,1,3.575-27.948,105.116,105.116,0,0,1,12.729-27,119.03,119.03,0,0,1,20.325-23.626,115.482,115.482,0,0,1,26.378-17.807,335.837,335.837,0,0,1,50.578-19.633,372.855,372.855,0,0,1,54.576-11.929c20.5-2.9,37.78-6.949,52.821-12.37a152.959,152.959,0,0,0,23.721-10.776,109.559,109.559,0,0,0,20.37-14.769,118.184,118.184,0,0,0,16.933-19.83,166.383,166.383,0,0,0,13.1-23.118c3.544-7.489,6.935-15.781,10.366-25.348,3.379-9.421,6.438-19.118,8.726-26.513,2.163-6.99,4.263-14.078,6.293-20.933,3.839-12.959,7.808-26.36,12.224-39.117A286.3,286.3,0,0,1,1259.82-91.5a207.494,207.494,0,0,1,16.438-26.838,208.164,208.164,0,0,1,20.31-24.045,202.531,202.531,0,0,1,50.634-37.579l.463.886a201.524,201.524,0,0,0-50.384,37.394,207.153,207.153,0,0,0-20.212,23.928,206.493,206.493,0,0,0-16.358,26.709,285.3,285.3,0,0,0-15.36,36.852c-4.408,12.736-8.375,26.126-12.21,39.074-2.031,6.858-4.132,13.95-6.3,20.945-2.291,7.4-5.355,17.115-8.74,26.555-3.442,9.6-6.845,17.919-10.4,25.438a167.4,167.4,0,0,1-13.182,23.255,119.187,119.187,0,0,1-17.078,20,110.555,110.555,0,0,1-20.556,14.9,153.958,153.958,0,0,1-23.876,10.847c-15.107,5.444-32.45,9.506-53.02,12.419a371.847,371.847,0,0,0-54.428,11.9,334.807,334.807,0,0,0-50.427,19.574,114.485,114.485,0,0,0-26.15,17.653A118.034,118.034,0,0,0,928.83,211.8a104.114,104.114,0,0,0-12.609,26.746,80.187,80.187,0,0,0-3.534,27.6c.957,17.3,7,34.714,17.951,51.764A164.736,164.736,0,0,0,949.4,341.687a217.381,217.381,0,0,0,23.992,21.764,178.349,178.349,0,0,0,16.179,11.191c5.209,3.21,10.741,6.3,16.912,9.441,11.486,5.849,23.077,10.823,35.349,16.09,21.718,9.32,44.175,18.958,65.609,33.7,18.693,12.859,34.789,27.042,47.842,42.157,14.618,16.928,25.326,34.954,31.827,53.578a160.369,160.369,0,0,1,6.047,22.715,223,223,0,0,1,3.148,23.253c1.347,15.647,1.411,31.9,1.473,47.623.049,12.384.1,25.191.765,37.816A261.588,261.588,0,0,0,1203,698.774a220.681,220.681,0,0,0,11,37.595,182.813,182.813,0,0,0,17.226,33.416,149.87,149.87,0,0,0,23.379,27.725,130.3,130.3,0,0,0,29.459,20.533,148.128,148.128,0,0,0,15.314,6.6c4.945,1.827,10.207,3.524,16.087,5.186,10.948,3.094,22.032,5.512,33.768,8.072,16.934,3.694,34.445,7.513,51.364,13.52a181.086,181.086,0,0,1,66.783,42.212,170.453,170.453,0,0,1,24.7,31.044,152.749,152.749,0,0,1,16.336,36.005,159.084,159.084,0,0,1,5.6,26.694,175.38,175.38,0,0,1,1.146,26.969,205.208,205.208,0,0,1-2.755,27.014,248.529,248.529,0,0,1-6.1,26.834c-2.449,8.6-5.445,17.49-8.9,26.43-3.252,8.4-7.005,17.084-11.156,25.8A509.638,509.638,0,0,1,1459.365,1169.259Z" transform="translate(-2.301 -7.949)"/>
        <path id="Trazado_107" data-name="Trazado 107" class="cls-19" d="M1455.613,1166.389l-.858-.513c10.71-17.911,19.555-34.318,27.04-50.157,4.23-8.951,8.055-17.81,11.368-26.332,3.551-9.133,6.632-18.182,9.16-26.9a257.877,257.877,0,0,0,6.372-27.26,210.345,210.345,0,0,0,3.007-27.421,178.465,178.465,0,0,0-.934-27.38,161.454,161.454,0,0,0-5.452-27.143,152.541,152.541,0,0,0-16.086-36.235,167.681,167.681,0,0,0-24.589-31.262,172.7,172.7,0,0,0-67.17-41.834c-17.889-5.97-36.566-9.258-54.628-12.439-10.968-1.931-22.308-3.928-33.135-6.486-5.827-1.377-11.066-2.806-16.016-4.369a156.474,156.474,0,0,1-15.453-5.74,136.454,136.454,0,0,1-31.687-19.464,151.715,151.715,0,0,1-25.739-27.151,171.06,171.06,0,0,1-19.128-33.171A187.028,187.028,0,0,1,1189.83,697.6a200.939,200.939,0,0,1-3.083-19.948c-.667-6.283-1.111-12.845-1.358-20.061-.458-13.39-.146-27,.156-40.167.356-15.547.724-31.623-.2-47.14a219.439,219.439,0,0,0-2.507-23.053,157.269,157.269,0,0,0-5.389-22.552,150.871,150.871,0,0,0-13-29.125,184.436,184.436,0,0,0-18.519-26.28c-13.03-15.527-29.294-30.253-48.341-43.769-20.075-14.245-41.321-24.669-61.867-34.751-11.1-5.447-22.581-11.08-33.543-17.174a252.386,252.386,0,0,1-31.841-20.637c-17.683-13.721-31.887-28.352-42.219-43.486-11.505-16.852-18.053-34.157-19.462-51.434a81.9,81.9,0,0,1,2.642-27.617,103.658,103.658,0,0,1,11.336-26.576,118.948,118.948,0,0,1,18.443-23.489,117.379,117.379,0,0,1,23.981-18.353,261.663,261.663,0,0,1,49.611-21.779,337.054,337.054,0,0,1,53.981-12.552c34.3-5.147,69.5-12.742,94.611-33.282A112.267,112.267,0,0,0,1181.339,75.5a151.5,151.5,0,0,0,14.06-22.484,235.006,235.006,0,0,0,10.98-24.921c2.9-7.661,5.792-16.224,8.837-26.178,2.877-9.532,5.545-19.244,8.125-28.637C1226.62-38.654,1230.01-51,1233.8-62.84a288.835,288.835,0,0,1,13.292-34.6,209.756,209.756,0,0,1,16.008-28.2,211.947,211.947,0,0,1,20.154-25.413A210.247,210.247,0,0,1,1307.11-173.1a205.38,205.38,0,0,1,27.1-18.109l.487.873a204.341,204.341,0,0,0-26.971,18.02,209.229,209.229,0,0,0-23.738,21.943,210.938,210.938,0,0,0-20.058,25.293A208.73,208.73,0,0,0,1248-97.015a287.814,287.814,0,0,0-13.246,34.479c-3.788,11.824-7.175,24.156-10.451,36.082-2.582,9.4-5.251,19.116-8.133,28.662-3.052,9.977-5.949,18.56-8.858,26.241a236,236,0,0,1-11.027,25.027,152.477,152.477,0,0,1-14.153,22.631A113.261,113.261,0,0,1,1163.9,95.15c-25.3,20.694-60.655,28.329-95.1,33.5a336.074,336.074,0,0,0-53.82,12.514,260.653,260.653,0,0,0-49.421,21.695,116.367,116.367,0,0,0-23.776,18.2A117.932,117.932,0,0,0,923.5,204.344a102.659,102.659,0,0,0-11.228,26.32,80.9,80.9,0,0,0-2.612,27.28c1.4,17.1,7.885,34.245,19.291,50.951,10.273,15.048,24.406,29.6,42.005,43.259a251.4,251.4,0,0,0,31.715,20.553c10.94,6.082,22.407,11.708,33.5,17.15,20.582,10.1,41.864,20.541,62.005,34.833,19.116,13.565,35.444,28.349,48.528,43.942a185.453,185.453,0,0,1,18.619,26.423,151.888,151.888,0,0,1,13.084,29.319,158.276,158.276,0,0,1,5.423,22.693,220.432,220.432,0,0,1,2.519,23.157c.926,15.558.557,31.656.2,47.223-.3,13.151-.613,26.749-.156,40.11.246,7.192.688,13.731,1.352,19.99a199.975,199.975,0,0,0,3.068,19.852,186.024,186.024,0,0,0,11.793,37.333,170.055,170.055,0,0,0,19.016,32.977,150.7,150.7,0,0,0,25.568,26.972A135.45,135.45,0,0,0,1278.64,814a184.3,184.3,0,0,0,31.3,10.052c10.8,2.551,22.125,4.546,33.079,6.475,18.1,3.187,36.812,6.482,54.771,12.475a173.709,173.709,0,0,1,67.561,42.076,168.689,168.689,0,0,1,24.736,31.449A153.538,153.538,0,0,1,1506.276,953a162.435,162.435,0,0,1,5.485,27.312,179.417,179.417,0,0,1,.939,27.534,211.342,211.342,0,0,1-3.021,27.552,258.889,258.889,0,0,1-6.4,27.367c-2.536,8.744-5.627,17.822-9.188,26.982-3.322,8.544-7.156,17.426-11.4,26.4C1475.2,1132.015,1466.34,1148.449,1455.613,1166.389Z" transform="translate(-1.556 -5.299)"/>
        <path id="Trazado_108" data-name="Trazado 108" class="cls-20" d="M1451.84,1163.52l-.866-.5c10.918-18.891,19.83-35.762,27.245-51.577,4.317-9.207,8.218-18.266,11.6-26.927,3.648-9.353,6.821-18.588,9.431-27.45a268.954,268.954,0,0,0,6.657-27.793,217.176,217.176,0,0,0,3.275-27.96,183.216,183.216,0,0,0-.713-27.951,165.49,165.49,0,0,0-5.308-27.77c-7.193-25.173-21.231-48.812-40.6-68.36a169.673,169.673,0,0,0-31.448-25,161.4,161.4,0,0,0-36.451-16.694c-18.786-5.877-38.551-8.541-57.664-11.117-10.775-1.452-21.917-2.954-32.655-5.01a193.242,193.242,0,0,1-31.495-8.514,141.443,141.443,0,0,1-33.666-18.242,153.633,153.633,0,0,1-27.907-26.4,163.642,163.642,0,0,1-33.656-70.029,184.144,184.144,0,0,1-3.16-20.792c-.636-6.558-1-13.415-1.121-20.964-.219-14.01.475-28.3,1.147-42.118.755-15.519,1.535-31.567,1-47.115a218.619,218.619,0,0,0-1.931-23.13,156.391,156.391,0,0,0-4.842-22.693,150.372,150.372,0,0,0-12.776-30.251,185.456,185.456,0,0,0-18.635-27.28c-13.034-15.946-29.525-31.28-49.014-45.576-18.962-13.909-39.207-25.238-58.785-36.193-10.376-5.806-21.105-11.809-31.43-18.085a341.33,341.33,0,0,1-30.188-20.384,245.509,245.509,0,0,1-22.453-19.366,174.32,174.32,0,0,1-19-21.818,122.769,122.769,0,0,1-13.845-24.178,93.892,93.892,0,0,1-6.976-26.439,83.661,83.661,0,0,1,1.686-27.29,102.631,102.631,0,0,1,9.9-26.156,118.943,118.943,0,0,1,16.551-23.353,120.713,120.713,0,0,1,21.663-18.884,192.273,192.273,0,0,1,23.416-13.525,230.189,230.189,0,0,1,25.159-10.449c8.325-2.908,17.2-5.512,26.379-7.738,8.6-2.086,17.712-3.9,27.079-5.39l2.639-.419c31.742-5.04,64.565-10.252,89.672-28.231a106.971,106.971,0,0,0,19.233-17.875,140.813,140.813,0,0,0,15.037-21.848c7.776-13.794,14.481-30.275,20.5-50.383,3.495-11.758,6.524-23.828,9.454-35.5,2.782-11.085,5.659-22.547,8.909-33.623a288.062,288.062,0,0,1,11.468-32.563,212.042,212.042,0,0,1,15.572-29.566,215.855,215.855,0,0,1,20-26.782,215.049,215.049,0,0,1,23.926-23.379,209.93,209.93,0,0,1,27.357-19.358l.51.86a208.916,208.916,0,0,0-27.226,19.265,214.045,214.045,0,0,0-23.814,23.27,214.857,214.857,0,0,0-19.9,26.657,211.033,211.033,0,0,0-15.5,29.426,287.041,287.041,0,0,0-11.428,32.451c-3.245,11.057-6.119,22.51-8.9,33.585-2.932,11.682-5.964,23.762-9.465,35.542-6.041,20.182-12.775,36.729-20.588,50.589a141.8,141.8,0,0,1-15.145,22,107.958,107.958,0,0,1-19.414,18.041c-25.3,18.117-58.24,23.347-90.1,28.406l-2.639.419c-9.341,1.486-18.425,3.295-27,5.374-9.148,2.219-17.991,4.813-26.285,7.71a229.216,229.216,0,0,0-25.049,10.4,191.294,191.294,0,0,0-23.294,13.454,119.717,119.717,0,0,0-21.483,18.728,117.952,117.952,0,0,0-16.412,23.156,101.644,101.644,0,0,0-9.8,25.9,82.669,82.669,0,0,0-1.667,26.965,92.89,92.89,0,0,0,6.9,26.157,121.766,121.766,0,0,0,13.733,23.979c10.154,13.988,24.033,27.775,41.251,40.978a340.34,340.34,0,0,0,30.1,20.323c10.31,6.267,21.031,12.266,31.4,18.067,19.6,10.97,39.877,22.313,58.888,36.259,19.557,14.346,36.109,29.738,49.2,45.75a186.47,186.47,0,0,1,18.735,27.428,151.383,151.383,0,0,1,12.86,30.452,157.393,157.393,0,0,1,4.873,22.836,219.566,219.566,0,0,1,1.94,23.235c.533,15.589-.248,31.658-1,47.2-.671,13.8-1.365,28.076-1.146,42.054.118,7.522.483,14.353,1.117,20.884a183.2,183.2,0,0,0,3.143,20.681,162.642,162.642,0,0,0,33.449,69.6,152.632,152.632,0,0,0,27.725,26.226,140.436,140.436,0,0,0,33.427,18.113,192.267,192.267,0,0,0,31.332,8.469c10.712,2.051,21.84,3.551,32.6,5,19.155,2.581,38.962,5.251,57.829,11.153a162.387,162.387,0,0,1,36.678,16.8,170.665,170.665,0,0,1,31.634,25.147c19.483,19.667,33.608,43.455,40.847,68.79a166.485,166.485,0,0,1,5.341,27.939,184.218,184.218,0,0,1,.717,28.1,218.2,218.2,0,0,1-3.29,28.089,269.979,269.979,0,0,1-6.682,27.9c-2.618,8.888-5.8,18.151-9.458,27.53-3.386,8.682-7.3,17.762-11.622,26.989C1471.7,1127.708,1462.773,1144.6,1451.84,1163.52Z" transform="translate(-0.791 -2.65)"/>
        <path id="Trazado_109" data-name="Trazado 109" class="cls-20" d="M1448.041,1160.652l-.873-.488c11.363-20.319,20.094-37.162,27.478-53a409.586,409.586,0,0,0,21.572-55.537,279.4,279.4,0,0,0,6.954-28.33,222.968,222.968,0,0,0,3.539-28.5,186.776,186.776,0,0,0-.519-28.513,168.333,168.333,0,0,0-5.222-28.379,154.384,154.384,0,0,0-15.8-37.171,165.572,165.572,0,0,0-56.374-57.217,154.9,154.9,0,0,0-36.967-16.388,213.026,213.026,0,0,0-29.855-6.206c-10.1-1.438-20.478-2.417-30.514-3.364-10.65-1-21.662-2.044-32.371-3.633a201.218,201.218,0,0,1-31.659-7.047,146.644,146.644,0,0,1-35.644-17.02,157.354,157.354,0,0,1-52.8-57.959,146.154,146.154,0,0,1-13.6-37.037,170.593,170.593,0,0,1-3.22-21.548c-.6-6.806-.882-13.932-.863-21.785.036-14.575,1.134-29.491,2.2-43.915,1.145-15.55,2.329-31.63,2.175-47.263a218.328,218.328,0,0,0-1.38-23.286,155.9,155.9,0,0,0-4.335-22.907,149.746,149.746,0,0,0-12.558-31.365,186.75,186.75,0,0,0-18.767-28.263,245.822,245.822,0,0,0-23.354-25.21,325.1,325.1,0,0,0-26.312-22.2c-18.3-13.915-38.042-26.49-57.131-38.651-18.838-12-38.316-24.41-56.425-38.111a267,267,0,0,1-21.625-18.118,178.8,178.8,0,0,1-19.056-20.768,122.258,122.258,0,0,1-14.436-23.5,92.455,92.455,0,0,1-7.75-26.3,86.743,86.743,0,0,1,.7-26.962,102.084,102.084,0,0,1,8.4-25.73,118.976,118.976,0,0,1,14.645-23.214,125.8,125.8,0,0,1,19.439-19.422,154.983,154.983,0,0,1,22.66-14.992,192.3,192.3,0,0,1,24.793-11.219c15.56-5.8,32.9-10.269,53.02-13.667,5.351-.9,10.85-1.735,16.167-2.539,12.743-1.926,25.919-3.918,38.418-7.1A149.5,149.5,0,0,0,1119.08,91a105.921,105.921,0,0,0,17.135-8.549,101.964,101.964,0,0,0,20.39-16.833A130.1,130.1,0,0,0,1172.62,44.4a178.217,178.217,0,0,0,12.209-24.133A244.843,244.843,0,0,0,1193.8-5.307c3.943-13.473,7.095-27.43,10.143-40.928,2.37-10.5,4.821-21.351,7.628-31.9a287.313,287.313,0,0,1,10.011-31.184,214.384,214.384,0,0,1,15.132-30.926,219.973,219.973,0,0,1,19.843-28.15,220.128,220.128,0,0,1,24-24.711,214.836,214.836,0,0,1,27.612-20.608l.531.847a213.813,213.813,0,0,0-27.483,20.512,219.094,219.094,0,0,0-23.893,24.6,218.944,218.944,0,0,0-19.752,28.022,213.357,213.357,0,0,0-15.061,30.781,286.371,286.371,0,0,0-9.975,31.076c-2.8,10.534-5.25,21.378-7.619,31.866-3.051,13.513-6.206,27.485-10.158,40.988a245.844,245.844,0,0,1-9.012,25.676,179.2,179.2,0,0,1-12.279,24.269,131.1,131.1,0,0,1-16.139,21.38,102.965,102.965,0,0,1-20.591,17,106.905,106.905,0,0,1-17.295,8.629,150.467,150.467,0,0,1-18.415,5.869c-12.547,3.194-25.749,5.189-38.516,7.12-5.313.8-10.807,1.634-16.15,2.536-20.053,3.387-37.337,7.841-52.837,13.618a191.306,191.306,0,0,0-24.664,11.16,153.976,153.976,0,0,0-22.514,14.895,124.792,124.792,0,0,0-19.284,19.267,117.978,117.978,0,0,0-14.522,23.018,101.094,101.094,0,0,0-8.322,25.477,85.743,85.743,0,0,0-.694,26.651,91.45,91.45,0,0,0,7.667,26.014,121.246,121.246,0,0,0,14.318,23.3,177.829,177.829,0,0,0,18.949,20.651,265.963,265.963,0,0,0,21.544,18.049c18.076,13.677,37.538,26.075,56.359,38.065,19.107,12.172,38.863,24.759,57.2,38.7a326.094,326.094,0,0,1,26.393,22.272,246.813,246.813,0,0,1,23.45,25.314,187.74,187.74,0,0,1,18.868,28.416,150.748,150.748,0,0,1,12.641,31.575,156.868,156.868,0,0,1,4.363,23.052,219.285,219.285,0,0,1,1.387,23.393c.154,15.675-1.031,31.776-2.178,47.346-1.061,14.407-2.157,29.3-2.193,43.845-.019,7.822.262,14.918.859,21.694a169.592,169.592,0,0,0,3.2,21.423,145.156,145.156,0,0,0,13.508,36.783,156.357,156.357,0,0,0,52.463,57.589,145.652,145.652,0,0,0,35.4,16.9,200.228,200.228,0,0,0,31.5,7.01c10.682,1.586,21.681,2.623,32.318,3.627,10.048.948,20.437,1.928,30.561,3.37a214,214,0,0,1,29.994,6.237,155.9,155.9,0,0,1,37.206,16.493,166.57,166.57,0,0,1,56.716,57.564,155.384,155.384,0,0,1,15.906,37.412,169.329,169.329,0,0,1,5.253,28.548,187.827,187.827,0,0,1,.523,28.666,223.981,223.981,0,0,1-3.555,28.626,280.42,280.42,0,0,1-6.979,28.432,410.582,410.582,0,0,1-21.624,55.672C1468.158,1123.447,1459.416,1140.311,1448.041,1160.652Z" transform="translate(0)"/>
      </g>
      <path id="Trazado_110" data-name="Trazado 110" class="cls-21" d="M-198.285,882.507a290.4,290.4,0,0,1-26.359-20.114c-33.8-28.9-65.888-59.711-90.924-96.369-34.729-50.848-54.6-115.456-38.842-174.963C-343.1,548.344-315,512.527-287.58,478.048l47.914-60.261c19.59-24.638,40.064-50.012,68.069-64.186,40.239-20.366,94.646-11.176,122.59,24.563,11.528,14.744,18.216,32.666,24.036,50.484,4.729,14.476,9.042,29.36,9.03,44.586-.021,24.267-10.911,46.92-19.994,69.366C-52.155,582.683-63.1,628.336-47.819,668.89c6.915,18.35,18.752,34.334,28.177,51.518C.973,757.99,9.831,803.55-2.731,844.483s-49.125,75.221-91.586,78C-128.519,924.714-167.364,903.354-198.285,882.507Z" transform="translate(1605.674 508.528)"/>
    </g>
  </g>
</svg>
