<svg xmlns="http://www.w3.org/2000/svg" width="506.837" height="194.38" viewBox="0 0 506.837 194.38">
  <g id="Grupo_72" data-name="Grupo 72" transform="translate(-361 1442.38)">
    <path id="Trazado_143" data-name="Trazado 143" d="M241.993,308.092V242.111h14.255v53.763H294.33v12.219Z" transform="translate(119.989 -1683.473)"/>
    <path id="Trazado_144" data-name="Trazado 144" d="M276.65,308.092l28.568-65.981h14.3l27.813,65.981H333.673L329.3,297.6H295.827l-4.518,10.489ZM300.656,286.4h23.963l-5.144-12.322-7.059-16.911q-3.476,10.189-6.543,17.116Z" transform="translate(142.25 -1683.473)"/>
    <path id="Trazado_145" data-name="Trazado 145" d="M324.887,308.092V242.111h28.2q14.052,0,21.79,7.177a25.252,25.252,0,0,1,4.48,30.6,25,25,0,0,1-9.164,9.062l13.746,19.143H366.533L356.35,292.819q-3.36.2-9.572.2h-7.638v15.07Zm14.254-27.29H353.7q6.415,0,10.233-3.767a13.716,13.716,0,0,0,.051-18.937q-3.769-3.767-10.182-3.767H339.141Z" transform="translate(173.232 -1683.473)"/>
    <path id="Trazado_146" data-name="Trazado 146" d="M363.326,308.092l28.568-65.981h14.3l27.811,65.981H420.349L415.972,297.6H382.5l-4.518,10.489Zm24-21.688h23.965l-5.146-12.322-7.057-16.911q-3.478,10.189-6.543,17.116Z" transform="translate(197.922 -1683.473)"/>
    <path id="Trazado_147" data-name="Trazado 147" d="M427.063,275.5a32.746,32.746,0,0,1,9.926-24.134q9.928-9.873,25-9.875a34.715,34.715,0,0,1,21.79,7.128l-8.248,9.673A20.643,20.643,0,0,0,463,254.423q-9.368,0-15.222,6.16a20.863,20.863,0,0,0-5.855,14.917,21.239,21.239,0,0,0,5.753,14.968,18.818,18.818,0,0,0,14.408,6.211,21.293,21.293,0,0,0,14.764-5.295l8.655,9.775q-9.571,8.452-23.521,8.451-15.071,0-25-9.877A32.861,32.861,0,0,1,427.063,275.5Z" transform="translate(238.861 -1683.871)"/>
    <path id="Trazado_148" data-name="Trazado 148" d="M465.131,275.5a32.746,32.746,0,0,1,9.928-24.134q9.925-9.873,25-9.875t25,9.875a34.42,34.42,0,0,1,0,48.368q-9.928,9.876-25,9.877t-25-9.877A32.861,32.861,0,0,1,465.131,275.5Zm14.866,0a21.239,21.239,0,0,0,5.753,14.968,18.814,18.814,0,0,0,14.406,6.211,18.554,18.554,0,0,0,14.257-6.211,22.37,22.37,0,0,0,0-29.836,18.558,18.558,0,0,0-14.257-6.21,18.818,18.818,0,0,0-14.406,6.21A21.119,21.119,0,0,0,480,275.5Z" transform="translate(263.312 -1683.871)"/>
    <path id="Trazado_149" data-name="Trazado 149" d="M514.481,308.092V242.111h15.566l17.221,25.947q2.084,3.141,4.884,7.356t4.552,6.857l1.866,2.81v-42.97h14.257v65.981h-15.07L541.224,283.4q-2.662-3.969-5.833-8.708t-5.038-7.525l-1.617-2.761v43.684Z" transform="translate(295.01 -1683.473)"/>
    <path id="Trazado_150" data-name="Trazado 150" d="M241.4,348.58q0-21.508,14.978-36.41t37.714-14.9q18.894,0,32.874,10.754l-12.442,14.594a31.165,31.165,0,0,0-18.9-5.838q-14.135,0-22.964,9.3a31.47,31.47,0,0,0-8.834,22.506,32.044,32.044,0,0,0,8.68,22.582,28.382,28.382,0,0,0,21.736,9.371q13.367,0,22.276-7.99l13.058,14.75q-14.441,12.753-35.487,12.751-22.738,0-37.714-14.9T241.4,348.58Z" transform="translate(119.605 -1648.044)"/>
    <path id="Trazado_151" data-name="Trazado 151" d="M298.827,397.752l43.1-99.547H363.5l41.961,99.547H384.855l-6.6-15.822H327.758l-6.818,15.822Zm36.214-32.719H371.2l-7.763-18.593-10.649-25.511q-5.242,15.372-9.869,25.822Z" transform="translate(156.494 -1647.443)"/>
    <path id="Trazado_152" data-name="Trazado 152" d="M441.842,387.921q-12.367,11.369-30.34,11.368T381.161,388Q368.795,376.705,368.8,358.58V298.2h21.2v59.452q0,9.679,6.222,15.9a20.781,20.781,0,0,0,15.285,6.221,20.536,20.536,0,0,0,15.209-6.221q6.141-6.22,6.144-15.9V298.2h21.353V358.58Q454.208,376.553,441.842,387.921Z" transform="translate(201.435 -1647.443)"/>
    <path id="Trazado_153" data-name="Trazado 153" d="M430.156,386.37l7.682-16.591q15.358,11.061,32.874,11.061a25.522,25.522,0,0,0,13.518-3.458q5.684-3.458,5.686-8.526,0-4.915-4.84-7.527a52.067,52.067,0,0,0-13.6-4.455q-6.451-1.535-11.136-2.841a64.073,64.073,0,0,1-10.063-3.841,35.256,35.256,0,0,1-8.757-5.607,25.343,25.343,0,0,1-5.684-7.834,24.4,24.4,0,0,1-2.3-10.754q0-13.669,10.9-21.2t26.271-7.528q20.429,0,36.408,10.6l-7.835,16.59a53.491,53.491,0,0,0-28.573-8.141,26.328,26.328,0,0,0-10.524,2.151,7.5,7.5,0,0,0-4.993,7.374q0,4.457,4.456,6.836t13.979,4.378q37.943,8.45,37.944,31.8,0,15.059-12.212,23.044t-28.8,7.989Q446.441,399.89,430.156,386.37Z" transform="translate(240.847 -1648.044)"/>
    <path id="Trazado_154" data-name="Trazado 154" d="M483.94,397.752l43.1-99.547h21.575l41.961,99.547H569.968l-6.6-15.822H512.873l-6.819,15.822Zm36.214-32.719H556.31l-7.763-18.593L537.9,320.928q-5.242,15.372-9.868,25.822Z" transform="translate(275.394 -1647.443)"/>
  </g>
</svg>
